#N canvas 161 55 654 690 10;
#X obj 71 51 inlet;
#X obj 39 350 phasor~;
#X obj 39 370 cos~;
#X obj 39 450 +~ 1;
#X obj 38 470 *~;
#X obj 39 390 *~;
#X obj 38 490 phasor~;
#X obj 38 510 cos~;
#X obj 208 562 *~;
#X floatatom 131 252 5 0 0 0 - - -, f 5;
#X obj 296 254 tabread4~ ADSR-table;
#X obj 296 235 line~;
#X obj 296 184 f;
#X obj 358 201 del;
#X msg 390 218 0;
#X obj 296 164 * 1000;
#X obj 115 373 *~ 0.4;
#X obj 103 546 +~;
#X obj 159 356 phasor~;
#X obj 159 375 cos~;
#X obj 189 529 *~;
#X obj 115 452 +~ 1;
#X obj 189 469 *~;
#X obj 115 402 *~;
#X obj 189 489 phasor~;
#X obj 189 509 cos~;
#X text 165 250 freq;
#X text 398 50 dur(sec);
#X obj 70 129 bng 15 250 50 0 empty empty empty 17 7 0 10 -262144 -1
-1;
#X obj 267 587 *~;
#X msg 282 543 \$1 20;
#X obj 282 563 line~;
#X text 32 58 play;
#X obj 296 144 f;
#X floatatom 311 125 5 0 0 0 - - -, f 5;
#X obj 448 75 vsl 15 50 0 1 0 0 empty empty empty 0 -9 0 10 -258049
-1 -1 0 1;
#X obj 39 330 * 1.33;
#X obj 159 337 * 1.33;
#X msg 126 320 0;
#X obj 115 432 *~;
#X obj 39 430 *~;
#X msg 448 389 \$1 20;
#X obj 448 409 line~;
#X obj 295 493 *~ -0.5;
#X obj 295 512 +~ 0.5;
#X obj 206 320 * 1.003;
#X obj 267 611 outlet~;
#X obj 448 52 inlet;
#X text 488 53 color;
#X obj 363 50 inlet;
#X obj 252 42 inlet;
#X text 287 42 mul;
#X obj 141 46 inlet;
#X text 180 47 freq;
#X msg 296 216 0 \, 100 \$1;
#X connect 0 0 28 0;
#X connect 1 0 2 0;
#X connect 2 0 5 0;
#X connect 3 0 4 0;
#X connect 4 0 6 0;
#X connect 5 0 40 0;
#X connect 6 0 7 0;
#X connect 7 0 17 0;
#X connect 8 0 29 0;
#X connect 9 0 4 1;
#X connect 9 0 36 0;
#X connect 9 0 45 0;
#X connect 10 0 8 1;
#X connect 10 0 16 0;
#X connect 10 0 43 0;
#X connect 11 0 10 0;
#X connect 12 0 13 0;
#X connect 12 0 54 0;
#X connect 13 0 14 0;
#X connect 14 0 11 0;
#X connect 15 0 12 0;
#X connect 16 0 5 1;
#X connect 16 0 23 0;
#X connect 17 0 8 0;
#X connect 18 0 19 0;
#X connect 19 0 23 1;
#X connect 20 0 17 1;
#X connect 21 0 22 0;
#X connect 22 0 24 0;
#X connect 23 0 39 0;
#X connect 24 0 25 0;
#X connect 25 0 20 0;
#X connect 28 0 33 0;
#X connect 28 0 9 0;
#X connect 28 0 38 0;
#X connect 29 0 46 0;
#X connect 30 0 31 0;
#X connect 31 0 29 1;
#X connect 33 0 15 0;
#X connect 34 0 33 1;
#X connect 35 0 41 0;
#X connect 36 0 1 0;
#X connect 37 0 18 0;
#X connect 38 0 1 1;
#X connect 38 0 18 1;
#X connect 38 0 6 1;
#X connect 38 0 24 1;
#X connect 39 0 21 0;
#X connect 40 0 3 0;
#X connect 41 0 42 0;
#X connect 42 0 40 1;
#X connect 42 0 39 1;
#X connect 43 0 44 0;
#X connect 44 0 20 1;
#X connect 45 0 22 1;
#X connect 45 0 37 0;
#X connect 47 0 35 0;
#X connect 49 0 34 0;
#X connect 50 0 30 0;
#X connect 52 0 9 0;
#X connect 54 0 11 0;
