#N canvas 0 21 1366 724.969 10;
#X obj -327 258 vsl 15 50 0 1 0 0 empty empty empty 0 -9 0 10 -258049
-1 -1 1798 1;
#X obj -360 258 vsl 15 50 0 1 0 0 empty empty empty 0 -9 0 10 -258049
-1 -1 1798 1;
#X obj -393 258 vsl 15 50 0 1 0 0 empty empty empty 0 -9 0 10 -258049
-1 -1 701 1;
#X obj -426 258 vsl 15 50 0 1 0 0 empty empty empty 0 -9 0 10 -258049
-1 -1 196 1;
#N canvas 0 0 450 300 (subpatch) 0;
#X array ADSR-table 100 float 3 black black;
#A 0 0 0 0.4585 0.68775 0.917 0.982409 0.954835 0.927261 0.899687 0.872113
0.844538 0.816964 0.78939 0.761816 0.734242 0.706668 0.679094 0.65152
0.623945 0.596371 0.57 0.57 0.57 0.57 0.57 0.57 0.57 0.57 0.57 0.57
0.57 0.57 0.57 0.57 0.57 0.57 0.57 0.57 0.57 0.57 0.57 0.57 0.57 0.57
0.57 0.57 0.57 0.57 0.57 0.57 0.57 0.57 0.57 0.57 0.57 0.57 0.57 0.57
0.57 0.57 0.569689 0.555447 0.541205 0.526963 0.51272 0.498478 0.484236
0.469994 0.455751 0.441509 0.427267 0.413025 0.398783 0.38454 0.370298
0.356056 0.341814 0.327571 0.313329 0.299087 0.284845 0.270602 0.25636
0.242118 0.227876 0.213634 0.199391 0.185149 0.170907 0.156665 0.142422
0.12818 0.113938 0.0996956 0.0854534 0.0712112 0.0569689 0.0427267
0.0284845 0.0142422;
#X coords 0 1 100 0 220 80 1;
#X restore -385 339 graph;
#X obj -226 259 vsl 15 50 0 1 0 0 empty empty empty 0 -9 0 10 -258049
-1 -1 2793 1;
#N canvas 0 58 1366 699 ADSR(a 0;
#X obj 144 -188 vsl 15 50 0 1 0 0 empty empty empty 0 -9 0 10 -258049
-1 -1 1798 1;
#X obj 126 -188 vsl 15 50 0 1 0 0 empty empty empty 0 -9 0 10 -258049
-1 -1 1798 1;
#X obj 108 -188 vsl 15 50 0 1 0 0 empty empty empty 0 -9 0 10 -258049
-1 -1 701 1;
#X obj 90 -188 vsl 15 50 0 1 0 0 empty empty empty 0 -9 0 10 -258049
-1 -1 196 1;
#X obj 164 -188 vsl 15 50 0.005 1 0 0 empty empty empty 0 -9 0 10 -262144
-1 -1 0 1;
#X obj 164 -36 t b f;
#X obj 146 -15 f;
#X obj 146 4 t b f;
#X obj 128 25 f;
#X obj 128 44 t b f;
#X obj 110 66 f;
#X obj 110 85 t b f;
#X obj 92 106 f;
#X obj 237 106 +;
#X obj 222 125 +;
#X obj 92 126 t f f;
#X obj 207 144 +;
#X obj 92 149 pack 0 0 0 0 0;
#X obj 92 190 unpack 0 0 0 0 0;
#X obj 115 215 *;
#X obj 138 215 *;
#X obj 161 215 *;
#X obj 207 219 moses 0;
#X obj 161 236 /;
#X obj 138 236 /;
#X obj 115 236 /;
#X obj 164 -110 int;
#X obj 164 -130 * 44100;
#X obj 91 343 t b b;
#X obj 170 360 f;
#X msg 187 384 resize \$1;
#X obj 187 406 s ADSR-table;
#X obj 155 420 f;
#X obj 122 456 + 1;
#X obj 155 439 t f f;
#X obj 91 403 until;
#X text 176 455 x values;
#X obj 282 270 moses;
#X obj 309 292 moses;
#X obj 336 318 moses;
#X obj 280 477 expr $f1/$f2 \; $f1;
#X obj 146 261 +;
#X obj 115 280 +;
#X obj 476 530 tabwrite ADSR-table;
#X text 477 545 f(x)--------------x;
#X obj 476 368 f;
#X obj 587 367 f;
#X obj 475 418 f;
#X obj 586 417 f;
#X obj 476 472 f;
#X obj 587 471 f;
#X obj 476 506 f;
#X obj 587 505 f;
#X text 91 -206 A--D--S--R--dur;
#X obj 358 253 f;
#X obj 396 275 f;
#X obj 410 298 f;
#X obj 451 208 f;
#X obj 143 386 sel 1;
#X obj 389 -190 loadbang;
#X obj 86 -234 inlet;
#X obj 123 -234 inlet;
#X obj 160 -234 inlet;
#X obj 199 -234 inlet;
#X obj 236 -234 inlet;
#X obj 516 -145 vsl 15 50 0 1 0 0 empty empty empty 0 -9 0 10 -258049
-1 -1 2793 1;
#X obj 545 211 f;
#X obj 335 388 expr $f2 \; $f1;
#X obj 516 -78 t b f;
#X msg 449 -169 0.7;
#X obj 516 -205 inlet;
#X text 531 -120 S value;
#X obj 309 442 expr 1-(1-$f4)*($f1-$f2)/($f3-$f2) \; $f1;
#X obj 363 337 expr $f4-$f4*($f1-$f2)/($f3-$f2) \; $f1;
#X obj 92 169 speedlim 100;
#X obj 92 535 tabwrite ADSR-table;
#X obj 108 489 expr 0 \; 1;
#X msg 118 380 2, f 2;
#X obj 704 -182 inlet;
#X obj 654 -180 inlet;
#X obj 668 86 tabread4~ ADSR-table;
#X obj 668 67 line~;
#X obj 668 16 f;
#X obj 710 -1 * 1000;
#X obj 750 33 del;
#X obj 750 53 bng 15 250 50 0 empty empty empty 17 7 0 10 -262144 -1
-1;
#X msg 782 50 0;
#X obj 668 -3 bng 15 250 50 0 empty empty empty 17 7 0 10 -262144 -1
-1;
#X obj 710 -108 vsl 15 100 0 2 0 0 empty empty empty 0 -9 0 10 -262144
-1 -1 743 1;
#X obj 668 106 outlet~;
#X obj 768 268 print;
#X floatatom 563 -82 5 0 0 0 - - -, f 5;
#X msg 224 -72 100;
#X msg 668 48 0 \, 100 \$1;
#X obj 48 487 expr 0 \; 0;
#X connect 0 0 12 0;
#X connect 1 0 10 0;
#X connect 2 0 8 0;
#X connect 3 0 6 0;
#X connect 4 0 27 0;
#X connect 5 0 6 0;
#X connect 5 1 17 4;
#X connect 6 0 7 0;
#X connect 7 0 8 0;
#X connect 7 1 13 1;
#X connect 7 1 17 3;
#X connect 8 0 9 0;
#X connect 9 0 10 0;
#X connect 9 1 13 0;
#X connect 9 1 17 2;
#X connect 10 0 11 0;
#X connect 11 0 12 0;
#X connect 11 1 14 0;
#X connect 11 1 17 1;
#X connect 12 0 15 0;
#X connect 13 0 14 1;
#X connect 14 0 16 1;
#X connect 15 0 17 0;
#X connect 15 1 16 0;
#X connect 16 0 22 0;
#X connect 17 0 74 0;
#X connect 17 0 90 0;
#X connect 18 0 28 0;
#X connect 18 1 19 0;
#X connect 18 2 20 0;
#X connect 18 3 21 0;
#X connect 18 4 19 1;
#X connect 18 4 20 1;
#X connect 18 4 21 1;
#X connect 18 4 29 1;
#X connect 18 4 57 0;
#X connect 19 0 25 0;
#X connect 20 0 24 0;
#X connect 21 0 23 0;
#X connect 22 1 23 1;
#X connect 22 1 24 1;
#X connect 22 1 25 1;
#X connect 23 0 41 1;
#X connect 23 0 54 0;
#X connect 24 0 41 0;
#X connect 25 0 42 0;
#X connect 27 0 26 0;
#X connect 28 0 35 0;
#X connect 28 1 29 0;
#X connect 28 1 77 0;
#X connect 28 1 76 0;
#X connect 28 1 94 0;
#X connect 29 0 30 0;
#X connect 29 0 58 1;
#X connect 30 0 31 0;
#X connect 32 0 34 0;
#X connect 33 0 58 0;
#X connect 34 0 33 0;
#X connect 34 1 37 0;
#X connect 35 0 32 0;
#X connect 37 0 40 0;
#X connect 37 1 38 0;
#X connect 38 0 72 0;
#X connect 38 1 39 0;
#X connect 39 0 67 0;
#X connect 39 1 73 0;
#X connect 40 0 51 0;
#X connect 40 1 52 0;
#X connect 41 0 42 1;
#X connect 41 0 55 0;
#X connect 42 0 56 0;
#X connect 45 0 43 0;
#X connect 46 0 43 1;
#X connect 47 0 43 0;
#X connect 48 0 43 1;
#X connect 49 0 43 0;
#X connect 50 0 43 1;
#X connect 51 0 43 0;
#X connect 52 0 43 1;
#X connect 54 0 37 1;
#X connect 54 0 40 1;
#X connect 54 0 72 1;
#X connect 55 0 38 1;
#X connect 55 0 72 2;
#X connect 56 0 39 1;
#X connect 56 0 73 1;
#X connect 57 0 73 2;
#X connect 58 0 35 1;
#X connect 58 1 32 1;
#X connect 59 0 69 0;
#X connect 59 0 92 0;
#X connect 60 0 3 0;
#X connect 61 0 2 0;
#X connect 62 0 1 0;
#X connect 63 0 0 0;
#X connect 64 0 4 0;
#X connect 65 0 68 0;
#X connect 65 0 91 0;
#X connect 66 0 67 1;
#X connect 66 0 72 3;
#X connect 66 0 73 3;
#X connect 67 0 47 0;
#X connect 67 1 48 0;
#X connect 68 0 92 0;
#X connect 68 1 66 0;
#X connect 69 0 65 0;
#X connect 70 0 65 0;
#X connect 72 0 49 0;
#X connect 72 1 50 0;
#X connect 73 0 45 0;
#X connect 73 1 46 0;
#X connect 74 0 18 0;
#X connect 76 0 75 0;
#X connect 76 1 75 1;
#X connect 77 0 32 1;
#X connect 78 0 87 0;
#X connect 79 0 88 0;
#X connect 80 0 89 0;
#X connect 81 0 80 0;
#X connect 82 0 93 0;
#X connect 82 0 84 0;
#X connect 83 0 82 1;
#X connect 84 0 85 0;
#X connect 84 0 86 0;
#X connect 86 0 81 0;
#X connect 87 0 82 0;
#X connect 88 0 83 0;
#X connect 92 0 5 0;
#X connect 93 0 81 0;
#X connect 94 0 75 0;
#X connect 94 1 75 1;
#X coords 0 0 1 1 257 162 0;
#X restore -426 316 pd ADSR(a \, d \, s \, r \, size \, plateau \,
durSec \, play);
#X obj -183 238 vsl 15 70 0 2 0 0 empty empty empty 0 -9 0 10 -262144
-1 -1 518 1;
#X obj -141 296 bng 15 250 50 0 empty empty empty 17 7 0 10 -262144
-1 -1;
#X obj -426 403 *~ 1;
#X floatatom -157 337 5 0 0 0 - - -, f 5;
#X obj -426 222 unpack 0 0 0 0 0 0;
#X msg -426 200 0.04 0.143 0.367 0.367 0.57 0.15;
#X obj 12 17 loadbang;
#X msg 12 36 \; pd dsp 1;
#X obj -465 14 nanokontrol2_gui;
#X text -225 200 rec settings;
#X obj 183 87 textfile;
#X obj 183 109 list split 1;
#X obj 141 76 bng 15 250 50 0 empty empty empty 17 7 0 10 -262144 -1
-1;
#X obj 187 186 f;
#X obj 148 168 -;
#X obj 148 142 t f f;
#X obj 157 190 bng 15 250 50 0 empty empty empty 17 7 0 10 -262144
-1 -1;
#X obj 138 253 del;
#X msg 93 14 stop;
#X msg 154 16 start;
#X obj 154 38 t b b;
#X msg 187 134 46750;
#X obj 776 484 vsl 15 70 0.5 1.5 0 0 empty empty empty 0 -9 0 10 -262144
-1 -1 3450 1;
#X obj 390 581 f;
#X msg 403 54 1;
#X obj 426 582 + 1;
#X floatatom 428 627 5 0 0 0 - - -, f 5;
#X obj 468 548 unpack;
#X obj 293 531 t b a;
#X text -258 165 vibraphone;
#X text 436 666 voice freq mul dur color;
#X obj 428 651 pack 0 0 0 0 0;
#X obj 847 589 vsl 15 50 0 1 0 0 empty empty empty 0 -9 0 10 -258049
-1 -1 735 1;
#X obj 425 604 % 200;
#X obj 429 803 +~;
#N canvas 0 21 1366 724.906 poly-100-instrument(freq-mul-dur-color)
0;
#X obj 263 -1271 route 1 2 3 4 5 6 7 8 9 10;
#X obj 170 -640 +~;
#X obj 263 -624 instrument;
#X obj 276 -645 unpack 0 0 0 0;
#X obj 263 -666 t b l;
#X obj 278 -690 instrument;
#X obj 291 -711 unpack 0 0 0 0;
#X obj 278 -732 t b l;
#X obj 297 -754 instrument;
#X obj 310 -775 unpack 0 0 0 0;
#X obj 297 -796 t b l;
#X obj 312 -817 instrument;
#X obj 325 -838 unpack 0 0 0 0;
#X obj 312 -859 t b l;
#X obj 324 -882 instrument;
#X obj 337 -903 unpack 0 0 0 0;
#X obj 324 -924 t b l;
#X obj 339 -948 instrument;
#X obj 352 -969 unpack 0 0 0 0;
#X obj 339 -990 t b l;
#X obj 354 -1012 instrument;
#X obj 367 -1033 unpack 0 0 0 0;
#X obj 354 -1054 t b l;
#X obj 370 -1075 instrument;
#X obj 383 -1096 unpack 0 0 0 0;
#X obj 370 -1117 t b l;
#X obj 385 -1143 instrument;
#X obj 398 -1164 unpack 0 0 0 0;
#X obj 385 -1185 t b l;
#X obj 400 -1206 instrument;
#X obj 413 -1227 unpack 0 0 0 0;
#X obj 400 -1248 t b l;
#X obj 589 -623 instrument;
#X obj 602 -644 unpack 0 0 0 0;
#X obj 589 -665 t b l;
#X obj 606 -689 instrument;
#X obj 619 -710 unpack 0 0 0 0;
#X obj 606 -731 t b l;
#X obj 628 -753 instrument;
#X obj 641 -774 unpack 0 0 0 0;
#X obj 628 -795 t b l;
#X obj 652 -816 instrument;
#X obj 665 -837 unpack 0 0 0 0;
#X obj 652 -858 t b l;
#X obj 671 -881 instrument;
#X obj 684 -902 unpack 0 0 0 0;
#X obj 671 -923 t b l;
#X obj 693 -947 instrument;
#X obj 706 -968 unpack 0 0 0 0;
#X obj 693 -989 t b l;
#X obj 711 -1011 instrument;
#X obj 724 -1032 unpack 0 0 0 0;
#X obj 711 -1053 t b l;
#X obj 731 -1074 instrument;
#X obj 744 -1095 unpack 0 0 0 0;
#X obj 731 -1116 t b l;
#X obj 752 -1142 instrument;
#X obj 765 -1163 unpack 0 0 0 0;
#X obj 752 -1184 t b l;
#X obj 773 -1205 instrument;
#X obj 786 -1226 unpack 0 0 0 0;
#X obj 773 -1247 t b l;
#X obj 587 -1270 route 11 12 13 14 15 16 17 18 19 20;
#X obj 519 -668 +~;
#X obj 927 -627 instrument;
#X obj 940 -648 unpack 0 0 0 0;
#X obj 927 -669 t b l;
#X obj 944 -693 instrument;
#X obj 957 -714 unpack 0 0 0 0;
#X obj 944 -735 t b l;
#X obj 966 -757 instrument;
#X obj 979 -778 unpack 0 0 0 0;
#X obj 966 -799 t b l;
#X obj 990 -820 instrument;
#X obj 1003 -841 unpack 0 0 0 0;
#X obj 990 -862 t b l;
#X obj 1009 -885 instrument;
#X obj 1022 -906 unpack 0 0 0 0;
#X obj 1009 -927 t b l;
#X obj 1031 -951 instrument;
#X obj 1044 -972 unpack 0 0 0 0;
#X obj 1031 -993 t b l;
#X obj 1049 -1015 instrument;
#X obj 1062 -1036 unpack 0 0 0 0;
#X obj 1049 -1057 t b l;
#X obj 1069 -1078 instrument;
#X obj 1082 -1099 unpack 0 0 0 0;
#X obj 1069 -1120 t b l;
#X obj 1090 -1146 instrument;
#X obj 1103 -1167 unpack 0 0 0 0;
#X obj 1090 -1188 t b l;
#X obj 1111 -1209 instrument;
#X obj 1124 -1230 unpack 0 0 0 0;
#X obj 1111 -1251 t b l;
#X obj 879 -672 +~;
#X obj 925 -1274 route 21 22 23 24 25 26 27 28 29 30;
#X obj 1267 -627 instrument;
#X obj 1280 -648 unpack 0 0 0 0;
#X obj 1267 -669 t b l;
#X obj 1284 -693 instrument;
#X obj 1297 -714 unpack 0 0 0 0;
#X obj 1284 -735 t b l;
#X obj 1306 -757 instrument;
#X obj 1319 -778 unpack 0 0 0 0;
#X obj 1306 -799 t b l;
#X obj 1330 -820 instrument;
#X obj 1343 -841 unpack 0 0 0 0;
#X obj 1330 -862 t b l;
#X obj 1349 -885 instrument;
#X obj 1362 -906 unpack 0 0 0 0;
#X obj 1349 -927 t b l;
#X obj 1371 -951 instrument;
#X obj 1384 -972 unpack 0 0 0 0;
#X obj 1371 -993 t b l;
#X obj 1389 -1015 instrument;
#X obj 1402 -1036 unpack 0 0 0 0;
#X obj 1389 -1057 t b l;
#X obj 1409 -1078 instrument;
#X obj 1422 -1099 unpack 0 0 0 0;
#X obj 1409 -1120 t b l;
#X obj 1430 -1146 instrument;
#X obj 1443 -1167 unpack 0 0 0 0;
#X obj 1430 -1188 t b l;
#X obj 1451 -1209 instrument;
#X obj 1464 -1230 unpack 0 0 0 0;
#X obj 1451 -1251 t b l;
#X obj 1219 -672 +~;
#X obj 1265 -1271 route 31 32 33 34 35 36 37 38 39 40;
#X obj 1607 -627 instrument;
#X obj 1620 -648 unpack 0 0 0 0;
#X obj 1607 -669 t b l;
#X obj 1624 -693 instrument;
#X obj 1637 -714 unpack 0 0 0 0;
#X obj 1624 -735 t b l;
#X obj 1646 -757 instrument;
#X obj 1659 -778 unpack 0 0 0 0;
#X obj 1646 -799 t b l;
#X obj 1670 -820 instrument;
#X obj 1683 -841 unpack 0 0 0 0;
#X obj 1670 -862 t b l;
#X obj 1689 -885 instrument;
#X obj 1702 -906 unpack 0 0 0 0;
#X obj 1689 -927 t b l;
#X obj 1711 -951 instrument;
#X obj 1724 -972 unpack 0 0 0 0;
#X obj 1711 -993 t b l;
#X obj 1729 -1015 instrument;
#X obj 1742 -1036 unpack 0 0 0 0;
#X obj 1729 -1057 t b l;
#X obj 1749 -1078 instrument;
#X obj 1762 -1099 unpack 0 0 0 0;
#X obj 1749 -1120 t b l;
#X obj 1770 -1146 instrument;
#X obj 1783 -1167 unpack 0 0 0 0;
#X obj 1770 -1188 t b l;
#X obj 1791 -1209 instrument;
#X obj 1804 -1230 unpack 0 0 0 0;
#X obj 1791 -1251 t b l;
#X obj 1559 -672 +~;
#X obj 1605 -1271 route 41 42 43 44 45 46 47 48 49 50;
#X obj 184 38 +~;
#X obj 277 54 instrument;
#X obj 290 33 unpack 0 0 0 0;
#X obj 277 12 t b l;
#X obj 292 -12 instrument;
#X obj 305 -33 unpack 0 0 0 0;
#X obj 292 -54 t b l;
#X obj 311 -76 instrument;
#X obj 324 -97 unpack 0 0 0 0;
#X obj 311 -118 t b l;
#X obj 326 -139 instrument;
#X obj 339 -160 unpack 0 0 0 0;
#X obj 326 -181 t b l;
#X obj 338 -204 instrument;
#X obj 351 -225 unpack 0 0 0 0;
#X obj 338 -246 t b l;
#X obj 353 -270 instrument;
#X obj 366 -291 unpack 0 0 0 0;
#X obj 353 -312 t b l;
#X obj 368 -334 instrument;
#X obj 381 -355 unpack 0 0 0 0;
#X obj 368 -376 t b l;
#X obj 384 -397 instrument;
#X obj 397 -418 unpack 0 0 0 0;
#X obj 384 -439 t b l;
#X obj 399 -465 instrument;
#X obj 412 -486 unpack 0 0 0 0;
#X obj 399 -507 t b l;
#X obj 414 -528 instrument;
#X obj 427 -549 unpack 0 0 0 0;
#X obj 414 -570 t b l;
#X obj 603 55 instrument;
#X obj 616 34 unpack 0 0 0 0;
#X obj 603 13 t b l;
#X obj 620 -11 instrument;
#X obj 633 -32 unpack 0 0 0 0;
#X obj 620 -53 t b l;
#X obj 642 -75 instrument;
#X obj 655 -96 unpack 0 0 0 0;
#X obj 642 -117 t b l;
#X obj 666 -138 instrument;
#X obj 679 -159 unpack 0 0 0 0;
#X obj 666 -180 t b l;
#X obj 685 -203 instrument;
#X obj 698 -224 unpack 0 0 0 0;
#X obj 685 -245 t b l;
#X obj 707 -269 instrument;
#X obj 720 -290 unpack 0 0 0 0;
#X obj 707 -311 t b l;
#X obj 725 -333 instrument;
#X obj 738 -354 unpack 0 0 0 0;
#X obj 725 -375 t b l;
#X obj 745 -396 instrument;
#X obj 758 -417 unpack 0 0 0 0;
#X obj 745 -438 t b l;
#X obj 766 -464 instrument;
#X obj 779 -485 unpack 0 0 0 0;
#X obj 766 -506 t b l;
#X obj 787 -527 instrument;
#X obj 800 -548 unpack 0 0 0 0;
#X obj 787 -569 t b l;
#X obj 533 10 +~;
#X obj 941 51 instrument;
#X obj 954 30 unpack 0 0 0 0;
#X obj 941 9 t b l;
#X obj 958 -15 instrument;
#X obj 971 -36 unpack 0 0 0 0;
#X obj 958 -57 t b l;
#X obj 980 -79 instrument;
#X obj 993 -100 unpack 0 0 0 0;
#X obj 980 -121 t b l;
#X obj 1004 -142 instrument;
#X obj 1017 -163 unpack 0 0 0 0;
#X obj 1004 -184 t b l;
#X obj 1023 -207 instrument;
#X obj 1036 -228 unpack 0 0 0 0;
#X obj 1023 -249 t b l;
#X obj 1045 -273 instrument;
#X obj 1058 -294 unpack 0 0 0 0;
#X obj 1045 -315 t b l;
#X obj 1063 -337 instrument;
#X obj 1076 -358 unpack 0 0 0 0;
#X obj 1063 -379 t b l;
#X obj 1083 -400 instrument;
#X obj 1096 -421 unpack 0 0 0 0;
#X obj 1083 -442 t b l;
#X obj 1104 -468 instrument;
#X obj 1117 -489 unpack 0 0 0 0;
#X obj 1104 -510 t b l;
#X obj 1125 -531 instrument;
#X obj 1138 -552 unpack 0 0 0 0;
#X obj 1125 -573 t b l;
#X obj 893 6 +~;
#X obj 1281 51 instrument;
#X obj 1294 30 unpack 0 0 0 0;
#X obj 1281 9 t b l;
#X obj 1298 -15 instrument;
#X obj 1311 -36 unpack 0 0 0 0;
#X obj 1298 -57 t b l;
#X obj 1320 -79 instrument;
#X obj 1333 -100 unpack 0 0 0 0;
#X obj 1320 -121 t b l;
#X obj 1344 -142 instrument;
#X obj 1357 -163 unpack 0 0 0 0;
#X obj 1344 -184 t b l;
#X obj 1363 -207 instrument;
#X obj 1376 -228 unpack 0 0 0 0;
#X obj 1363 -249 t b l;
#X obj 1385 -273 instrument;
#X obj 1398 -294 unpack 0 0 0 0;
#X obj 1385 -315 t b l;
#X obj 1403 -337 instrument;
#X obj 1416 -358 unpack 0 0 0 0;
#X obj 1403 -379 t b l;
#X obj 1423 -400 instrument;
#X obj 1436 -421 unpack 0 0 0 0;
#X obj 1423 -442 t b l;
#X obj 1444 -468 instrument;
#X obj 1457 -489 unpack 0 0 0 0;
#X obj 1444 -510 t b l;
#X obj 1465 -531 instrument;
#X obj 1478 -552 unpack 0 0 0 0;
#X obj 1465 -573 t b l;
#X obj 1233 6 +~;
#X obj 1621 51 instrument;
#X obj 1634 30 unpack 0 0 0 0;
#X obj 1621 9 t b l;
#X obj 1638 -15 instrument;
#X obj 1651 -36 unpack 0 0 0 0;
#X obj 1638 -57 t b l;
#X obj 1660 -79 instrument;
#X obj 1673 -100 unpack 0 0 0 0;
#X obj 1660 -121 t b l;
#X obj 1684 -142 instrument;
#X obj 1697 -163 unpack 0 0 0 0;
#X obj 1684 -184 t b l;
#X obj 1703 -207 instrument;
#X obj 1716 -228 unpack 0 0 0 0;
#X obj 1703 -249 t b l;
#X obj 1725 -273 instrument;
#X obj 1738 -294 unpack 0 0 0 0;
#X obj 1725 -315 t b l;
#X obj 1743 -337 instrument;
#X obj 1756 -358 unpack 0 0 0 0;
#X obj 1743 -379 t b l;
#X obj 1763 -400 instrument;
#X obj 1776 -421 unpack 0 0 0 0;
#X obj 1763 -442 t b l;
#X obj 1784 -468 instrument;
#X obj 1797 -489 unpack 0 0 0 0;
#X obj 1784 -510 t b l;
#X obj 1805 -531 instrument;
#X obj 1818 -552 unpack 0 0 0 0;
#X obj 1805 -573 t b l;
#X obj 1573 6 +~;
#X obj 277 -593 route 51 52 53 54 55 56 57 58 59 60;
#X obj 601 -592 route 61 62 63 64 65 66 67 68 69 70;
#X obj 939 -596 route 71 72 73 74 75 76 77 78 79 80;
#X obj 1279 -593 route 81 82 83 84 85 86 87 88 89 90;
#X obj 1616 -593 route 91 92 93 94 95 96 97 98 99 100;
#X obj 59 -1269 inlet;
#X obj 64 81 outlet~;
#X obj 1861 71 outlet;
#X connect 0 0 4 0;
#X connect 0 1 7 0;
#X connect 0 2 10 0;
#X connect 0 3 13 0;
#X connect 0 4 16 0;
#X connect 0 5 19 0;
#X connect 0 6 22 0;
#X connect 0 7 25 0;
#X connect 0 8 28 0;
#X connect 0 9 31 0;
#X connect 0 10 62 0;
#X connect 1 0 321 0;
#X connect 2 0 1 0;
#X connect 3 0 2 1;
#X connect 3 1 2 2;
#X connect 3 2 2 3;
#X connect 3 3 2 4;
#X connect 4 0 2 0;
#X connect 4 1 3 0;
#X connect 5 0 1 0;
#X connect 6 0 5 1;
#X connect 6 1 5 2;
#X connect 6 2 5 3;
#X connect 6 3 5 4;
#X connect 7 0 5 0;
#X connect 7 1 6 0;
#X connect 8 0 1 0;
#X connect 9 0 8 1;
#X connect 9 1 8 2;
#X connect 9 2 8 3;
#X connect 9 3 8 4;
#X connect 10 0 8 0;
#X connect 10 1 9 0;
#X connect 11 0 1 0;
#X connect 12 0 11 1;
#X connect 12 1 11 2;
#X connect 12 2 11 3;
#X connect 12 3 11 4;
#X connect 13 0 11 0;
#X connect 13 1 12 0;
#X connect 14 0 1 0;
#X connect 15 0 14 1;
#X connect 15 1 14 2;
#X connect 15 2 14 3;
#X connect 15 3 14 4;
#X connect 16 0 14 0;
#X connect 16 1 15 0;
#X connect 17 0 1 0;
#X connect 18 0 17 1;
#X connect 18 1 17 2;
#X connect 18 2 17 3;
#X connect 18 3 17 4;
#X connect 19 0 17 0;
#X connect 19 1 18 0;
#X connect 20 0 1 0;
#X connect 21 0 20 1;
#X connect 21 1 20 2;
#X connect 21 2 20 3;
#X connect 21 3 20 4;
#X connect 22 0 20 0;
#X connect 22 1 21 0;
#X connect 23 0 1 0;
#X connect 24 0 23 1;
#X connect 24 1 23 2;
#X connect 24 2 23 3;
#X connect 24 3 23 4;
#X connect 25 0 23 0;
#X connect 25 1 24 0;
#X connect 26 0 1 0;
#X connect 27 0 26 1;
#X connect 27 1 26 2;
#X connect 27 2 26 3;
#X connect 27 3 26 4;
#X connect 28 0 26 0;
#X connect 28 1 27 0;
#X connect 29 0 1 0;
#X connect 30 0 29 1;
#X connect 30 1 29 2;
#X connect 30 2 29 3;
#X connect 30 3 29 4;
#X connect 31 0 29 0;
#X connect 31 1 30 0;
#X connect 32 0 63 0;
#X connect 33 0 32 1;
#X connect 33 1 32 2;
#X connect 33 2 32 3;
#X connect 33 3 32 4;
#X connect 34 0 32 0;
#X connect 34 1 33 0;
#X connect 35 0 63 0;
#X connect 36 0 35 1;
#X connect 36 1 35 2;
#X connect 36 2 35 3;
#X connect 36 3 35 4;
#X connect 37 0 35 0;
#X connect 37 1 36 0;
#X connect 38 0 63 0;
#X connect 39 0 38 1;
#X connect 39 1 38 2;
#X connect 39 2 38 3;
#X connect 39 3 38 4;
#X connect 40 0 38 0;
#X connect 40 1 39 0;
#X connect 41 0 63 0;
#X connect 42 0 41 1;
#X connect 42 1 41 2;
#X connect 42 2 41 3;
#X connect 42 3 41 4;
#X connect 43 0 41 0;
#X connect 43 1 42 0;
#X connect 44 0 63 0;
#X connect 45 0 44 1;
#X connect 45 1 44 2;
#X connect 45 2 44 3;
#X connect 45 3 44 4;
#X connect 46 0 44 0;
#X connect 46 1 45 0;
#X connect 47 0 63 0;
#X connect 48 0 47 1;
#X connect 48 1 47 2;
#X connect 48 2 47 3;
#X connect 48 3 47 4;
#X connect 49 0 47 0;
#X connect 49 1 48 0;
#X connect 50 0 63 0;
#X connect 51 0 50 1;
#X connect 51 1 50 2;
#X connect 51 2 50 3;
#X connect 51 3 50 4;
#X connect 52 0 50 0;
#X connect 52 1 51 0;
#X connect 53 0 63 0;
#X connect 54 0 53 1;
#X connect 54 1 53 2;
#X connect 54 2 53 3;
#X connect 54 3 53 4;
#X connect 55 0 53 0;
#X connect 55 1 54 0;
#X connect 56 0 63 0;
#X connect 57 0 56 1;
#X connect 57 1 56 2;
#X connect 57 2 56 3;
#X connect 57 3 56 4;
#X connect 58 0 56 0;
#X connect 58 1 57 0;
#X connect 59 0 63 0;
#X connect 60 0 59 1;
#X connect 60 1 59 2;
#X connect 60 2 59 3;
#X connect 60 3 59 4;
#X connect 61 0 59 0;
#X connect 61 1 60 0;
#X connect 62 0 34 0;
#X connect 62 1 37 0;
#X connect 62 2 40 0;
#X connect 62 3 43 0;
#X connect 62 4 46 0;
#X connect 62 5 49 0;
#X connect 62 6 52 0;
#X connect 62 7 55 0;
#X connect 62 8 58 0;
#X connect 62 9 61 0;
#X connect 62 10 95 0;
#X connect 63 0 1 1;
#X connect 64 0 94 0;
#X connect 65 0 64 1;
#X connect 65 1 64 2;
#X connect 65 2 64 3;
#X connect 65 3 64 4;
#X connect 66 0 64 0;
#X connect 66 1 65 0;
#X connect 67 0 94 0;
#X connect 68 0 67 1;
#X connect 68 1 67 2;
#X connect 68 2 67 3;
#X connect 68 3 67 4;
#X connect 69 0 67 0;
#X connect 69 1 68 0;
#X connect 70 0 94 0;
#X connect 71 0 70 1;
#X connect 71 1 70 2;
#X connect 71 2 70 3;
#X connect 71 3 70 4;
#X connect 72 0 70 0;
#X connect 72 1 71 0;
#X connect 73 0 94 0;
#X connect 74 0 73 1;
#X connect 74 1 73 2;
#X connect 74 2 73 3;
#X connect 74 3 73 4;
#X connect 75 0 73 0;
#X connect 75 1 74 0;
#X connect 76 0 94 0;
#X connect 77 0 76 1;
#X connect 77 1 76 2;
#X connect 77 2 76 3;
#X connect 77 3 76 4;
#X connect 78 0 76 0;
#X connect 78 1 77 0;
#X connect 79 0 94 0;
#X connect 80 0 79 1;
#X connect 80 1 79 2;
#X connect 80 2 79 3;
#X connect 80 3 79 4;
#X connect 81 0 79 0;
#X connect 81 1 80 0;
#X connect 82 0 94 0;
#X connect 83 0 82 1;
#X connect 83 1 82 2;
#X connect 83 2 82 3;
#X connect 83 3 82 4;
#X connect 84 0 82 0;
#X connect 84 1 83 0;
#X connect 85 0 94 0;
#X connect 86 0 85 1;
#X connect 86 1 85 2;
#X connect 86 2 85 3;
#X connect 86 3 85 4;
#X connect 87 0 85 0;
#X connect 87 1 86 0;
#X connect 88 0 94 0;
#X connect 89 0 88 1;
#X connect 89 1 88 2;
#X connect 89 2 88 3;
#X connect 89 3 88 4;
#X connect 90 0 88 0;
#X connect 90 1 89 0;
#X connect 91 0 94 0;
#X connect 92 0 91 1;
#X connect 92 1 91 2;
#X connect 92 2 91 3;
#X connect 92 3 91 4;
#X connect 93 0 91 0;
#X connect 93 1 92 0;
#X connect 94 0 63 1;
#X connect 95 0 66 0;
#X connect 95 1 69 0;
#X connect 95 2 72 0;
#X connect 95 3 75 0;
#X connect 95 4 78 0;
#X connect 95 5 81 0;
#X connect 95 6 84 0;
#X connect 95 7 87 0;
#X connect 95 8 90 0;
#X connect 95 9 93 0;
#X connect 95 10 127 0;
#X connect 96 0 126 0;
#X connect 97 0 96 1;
#X connect 97 1 96 2;
#X connect 97 2 96 3;
#X connect 97 3 96 4;
#X connect 98 0 96 0;
#X connect 98 1 97 0;
#X connect 99 0 126 0;
#X connect 100 0 99 1;
#X connect 100 1 99 2;
#X connect 100 2 99 3;
#X connect 100 3 99 4;
#X connect 101 0 99 0;
#X connect 101 1 100 0;
#X connect 102 0 126 0;
#X connect 103 0 102 1;
#X connect 103 1 102 2;
#X connect 103 2 102 3;
#X connect 103 3 102 4;
#X connect 104 0 102 0;
#X connect 104 1 103 0;
#X connect 105 0 126 0;
#X connect 106 0 105 1;
#X connect 106 1 105 2;
#X connect 106 2 105 3;
#X connect 106 3 105 4;
#X connect 107 0 105 0;
#X connect 107 1 106 0;
#X connect 108 0 126 0;
#X connect 109 0 108 1;
#X connect 109 1 108 2;
#X connect 109 2 108 3;
#X connect 109 3 108 4;
#X connect 110 0 108 0;
#X connect 110 1 109 0;
#X connect 111 0 126 0;
#X connect 112 0 111 1;
#X connect 112 1 111 2;
#X connect 112 2 111 3;
#X connect 112 3 111 4;
#X connect 113 0 111 0;
#X connect 113 1 112 0;
#X connect 114 0 126 0;
#X connect 115 0 114 1;
#X connect 115 1 114 2;
#X connect 115 2 114 3;
#X connect 115 3 114 4;
#X connect 116 0 114 0;
#X connect 116 1 115 0;
#X connect 117 0 126 0;
#X connect 118 0 117 1;
#X connect 118 1 117 2;
#X connect 118 2 117 3;
#X connect 118 3 117 4;
#X connect 119 0 117 0;
#X connect 119 1 118 0;
#X connect 120 0 126 0;
#X connect 121 0 120 1;
#X connect 121 1 120 2;
#X connect 121 2 120 3;
#X connect 121 3 120 4;
#X connect 122 0 120 0;
#X connect 122 1 121 0;
#X connect 123 0 126 0;
#X connect 124 0 123 1;
#X connect 124 1 123 2;
#X connect 124 2 123 3;
#X connect 124 3 123 4;
#X connect 125 0 123 0;
#X connect 125 1 124 0;
#X connect 126 0 94 1;
#X connect 127 0 98 0;
#X connect 127 1 101 0;
#X connect 127 2 104 0;
#X connect 127 3 107 0;
#X connect 127 4 110 0;
#X connect 127 5 113 0;
#X connect 127 6 116 0;
#X connect 127 7 119 0;
#X connect 127 8 122 0;
#X connect 127 9 125 0;
#X connect 127 10 159 0;
#X connect 128 0 158 0;
#X connect 129 0 128 1;
#X connect 129 1 128 2;
#X connect 129 2 128 3;
#X connect 129 3 128 4;
#X connect 130 0 128 0;
#X connect 130 1 129 0;
#X connect 131 0 158 0;
#X connect 132 0 131 1;
#X connect 132 1 131 2;
#X connect 132 2 131 3;
#X connect 132 3 131 4;
#X connect 133 0 131 0;
#X connect 133 1 132 0;
#X connect 134 0 158 0;
#X connect 135 0 134 1;
#X connect 135 1 134 2;
#X connect 135 2 134 3;
#X connect 135 3 134 4;
#X connect 136 0 134 0;
#X connect 136 1 135 0;
#X connect 137 0 158 0;
#X connect 138 0 137 1;
#X connect 138 1 137 2;
#X connect 138 2 137 3;
#X connect 138 3 137 4;
#X connect 139 0 137 0;
#X connect 139 1 138 0;
#X connect 140 0 158 0;
#X connect 141 0 140 1;
#X connect 141 1 140 2;
#X connect 141 2 140 3;
#X connect 141 3 140 4;
#X connect 142 0 140 0;
#X connect 142 1 141 0;
#X connect 143 0 158 0;
#X connect 144 0 143 1;
#X connect 144 1 143 2;
#X connect 144 2 143 3;
#X connect 144 3 143 4;
#X connect 145 0 143 0;
#X connect 145 1 144 0;
#X connect 146 0 158 0;
#X connect 147 0 146 1;
#X connect 147 1 146 2;
#X connect 147 2 146 3;
#X connect 147 3 146 4;
#X connect 148 0 146 0;
#X connect 148 1 147 0;
#X connect 149 0 158 0;
#X connect 150 0 149 1;
#X connect 150 1 149 2;
#X connect 150 2 149 3;
#X connect 150 3 149 4;
#X connect 151 0 149 0;
#X connect 151 1 150 0;
#X connect 152 0 158 0;
#X connect 153 0 152 1;
#X connect 153 1 152 2;
#X connect 153 2 152 3;
#X connect 153 3 152 4;
#X connect 154 0 152 0;
#X connect 154 1 153 0;
#X connect 155 0 158 0;
#X connect 156 0 155 1;
#X connect 156 1 155 2;
#X connect 156 2 155 3;
#X connect 156 3 155 4;
#X connect 157 0 155 0;
#X connect 157 1 156 0;
#X connect 158 0 126 1;
#X connect 159 0 130 0;
#X connect 159 1 133 0;
#X connect 159 2 136 0;
#X connect 159 3 139 0;
#X connect 159 4 142 0;
#X connect 159 5 145 0;
#X connect 159 6 148 0;
#X connect 159 7 151 0;
#X connect 159 8 154 0;
#X connect 159 9 157 0;
#X connect 159 10 315 0;
#X connect 160 0 1 1;
#X connect 161 0 160 0;
#X connect 162 0 161 1;
#X connect 162 1 161 2;
#X connect 162 2 161 3;
#X connect 162 3 161 4;
#X connect 163 0 161 0;
#X connect 163 1 162 0;
#X connect 164 0 160 0;
#X connect 165 0 164 1;
#X connect 165 1 164 2;
#X connect 165 2 164 3;
#X connect 165 3 164 4;
#X connect 166 0 164 0;
#X connect 166 1 165 0;
#X connect 167 0 160 0;
#X connect 168 0 167 1;
#X connect 168 1 167 2;
#X connect 168 2 167 3;
#X connect 168 3 167 4;
#X connect 169 0 167 0;
#X connect 169 1 168 0;
#X connect 170 0 160 0;
#X connect 171 0 170 1;
#X connect 171 1 170 2;
#X connect 171 2 170 3;
#X connect 171 3 170 4;
#X connect 172 0 170 0;
#X connect 172 1 171 0;
#X connect 173 0 160 0;
#X connect 174 0 173 1;
#X connect 174 1 173 2;
#X connect 174 2 173 3;
#X connect 174 3 173 4;
#X connect 175 0 173 0;
#X connect 175 1 174 0;
#X connect 176 0 160 0;
#X connect 177 0 176 1;
#X connect 177 1 176 2;
#X connect 177 2 176 3;
#X connect 177 3 176 4;
#X connect 178 0 176 0;
#X connect 178 1 177 0;
#X connect 179 0 160 0;
#X connect 180 0 179 1;
#X connect 180 1 179 2;
#X connect 180 2 179 3;
#X connect 180 3 179 4;
#X connect 181 0 179 0;
#X connect 181 1 180 0;
#X connect 182 0 160 0;
#X connect 183 0 182 1;
#X connect 183 1 182 2;
#X connect 183 2 182 3;
#X connect 183 3 182 4;
#X connect 184 0 182 0;
#X connect 184 1 183 0;
#X connect 185 0 160 0;
#X connect 186 0 185 1;
#X connect 186 1 185 2;
#X connect 186 2 185 3;
#X connect 186 3 185 4;
#X connect 187 0 185 0;
#X connect 187 1 186 0;
#X connect 188 0 160 0;
#X connect 189 0 188 1;
#X connect 189 1 188 2;
#X connect 189 2 188 3;
#X connect 189 3 188 4;
#X connect 190 0 188 0;
#X connect 190 1 189 0;
#X connect 191 0 221 0;
#X connect 192 0 191 1;
#X connect 192 1 191 2;
#X connect 192 2 191 3;
#X connect 192 3 191 4;
#X connect 193 0 191 0;
#X connect 193 1 192 0;
#X connect 194 0 221 0;
#X connect 195 0 194 1;
#X connect 195 1 194 2;
#X connect 195 2 194 3;
#X connect 195 3 194 4;
#X connect 196 0 194 0;
#X connect 196 1 195 0;
#X connect 197 0 221 0;
#X connect 198 0 197 1;
#X connect 198 1 197 2;
#X connect 198 2 197 3;
#X connect 198 3 197 4;
#X connect 199 0 197 0;
#X connect 199 1 198 0;
#X connect 200 0 221 0;
#X connect 201 0 200 1;
#X connect 201 1 200 2;
#X connect 201 2 200 3;
#X connect 201 3 200 4;
#X connect 202 0 200 0;
#X connect 202 1 201 0;
#X connect 203 0 221 0;
#X connect 204 0 203 1;
#X connect 204 1 203 2;
#X connect 204 2 203 3;
#X connect 204 3 203 4;
#X connect 205 0 203 0;
#X connect 205 1 204 0;
#X connect 206 0 221 0;
#X connect 207 0 206 1;
#X connect 207 1 206 2;
#X connect 207 2 206 3;
#X connect 207 3 206 4;
#X connect 208 0 206 0;
#X connect 208 1 207 0;
#X connect 209 0 221 0;
#X connect 210 0 209 1;
#X connect 210 1 209 2;
#X connect 210 2 209 3;
#X connect 210 3 209 4;
#X connect 211 0 209 0;
#X connect 211 1 210 0;
#X connect 212 0 221 0;
#X connect 213 0 212 1;
#X connect 213 1 212 2;
#X connect 213 2 212 3;
#X connect 213 3 212 4;
#X connect 214 0 212 0;
#X connect 214 1 213 0;
#X connect 215 0 221 0;
#X connect 216 0 215 1;
#X connect 216 1 215 2;
#X connect 216 2 215 3;
#X connect 216 3 215 4;
#X connect 217 0 215 0;
#X connect 217 1 216 0;
#X connect 218 0 221 0;
#X connect 219 0 218 1;
#X connect 219 1 218 2;
#X connect 219 2 218 3;
#X connect 219 3 218 4;
#X connect 220 0 218 0;
#X connect 220 1 219 0;
#X connect 221 0 160 1;
#X connect 222 0 252 0;
#X connect 223 0 222 1;
#X connect 223 1 222 2;
#X connect 223 2 222 3;
#X connect 223 3 222 4;
#X connect 224 0 222 0;
#X connect 224 1 223 0;
#X connect 225 0 252 0;
#X connect 226 0 225 1;
#X connect 226 1 225 2;
#X connect 226 2 225 3;
#X connect 226 3 225 4;
#X connect 227 0 225 0;
#X connect 227 1 226 0;
#X connect 228 0 252 0;
#X connect 229 0 228 1;
#X connect 229 1 228 2;
#X connect 229 2 228 3;
#X connect 229 3 228 4;
#X connect 230 0 228 0;
#X connect 230 1 229 0;
#X connect 231 0 252 0;
#X connect 232 0 231 1;
#X connect 232 1 231 2;
#X connect 232 2 231 3;
#X connect 232 3 231 4;
#X connect 233 0 231 0;
#X connect 233 1 232 0;
#X connect 234 0 252 0;
#X connect 235 0 234 1;
#X connect 235 1 234 2;
#X connect 235 2 234 3;
#X connect 235 3 234 4;
#X connect 236 0 234 0;
#X connect 236 1 235 0;
#X connect 237 0 252 0;
#X connect 238 0 237 1;
#X connect 238 1 237 2;
#X connect 238 2 237 3;
#X connect 238 3 237 4;
#X connect 239 0 237 0;
#X connect 239 1 238 0;
#X connect 240 0 252 0;
#X connect 241 0 240 1;
#X connect 241 1 240 2;
#X connect 241 2 240 3;
#X connect 241 3 240 4;
#X connect 242 0 240 0;
#X connect 242 1 241 0;
#X connect 243 0 252 0;
#X connect 244 0 243 1;
#X connect 244 1 243 2;
#X connect 244 2 243 3;
#X connect 244 3 243 4;
#X connect 245 0 243 0;
#X connect 245 1 244 0;
#X connect 246 0 252 0;
#X connect 247 0 246 1;
#X connect 247 1 246 2;
#X connect 247 2 246 3;
#X connect 247 3 246 4;
#X connect 248 0 246 0;
#X connect 248 1 247 0;
#X connect 249 0 252 0;
#X connect 250 0 249 1;
#X connect 250 1 249 2;
#X connect 250 2 249 3;
#X connect 250 3 249 4;
#X connect 251 0 249 0;
#X connect 251 1 250 0;
#X connect 252 0 221 1;
#X connect 253 0 283 0;
#X connect 254 0 253 1;
#X connect 254 1 253 2;
#X connect 254 2 253 3;
#X connect 254 3 253 4;
#X connect 255 0 253 0;
#X connect 255 1 254 0;
#X connect 256 0 283 0;
#X connect 257 0 256 1;
#X connect 257 1 256 2;
#X connect 257 2 256 3;
#X connect 257 3 256 4;
#X connect 258 0 256 0;
#X connect 258 1 257 0;
#X connect 259 0 283 0;
#X connect 260 0 259 1;
#X connect 260 1 259 2;
#X connect 260 2 259 3;
#X connect 260 3 259 4;
#X connect 261 0 259 0;
#X connect 261 1 260 0;
#X connect 262 0 283 0;
#X connect 263 0 262 1;
#X connect 263 1 262 2;
#X connect 263 2 262 3;
#X connect 263 3 262 4;
#X connect 264 0 262 0;
#X connect 264 1 263 0;
#X connect 265 0 283 0;
#X connect 266 0 265 1;
#X connect 266 1 265 2;
#X connect 266 2 265 3;
#X connect 266 3 265 4;
#X connect 267 0 265 0;
#X connect 267 1 266 0;
#X connect 268 0 283 0;
#X connect 269 0 268 1;
#X connect 269 1 268 2;
#X connect 269 2 268 3;
#X connect 269 3 268 4;
#X connect 270 0 268 0;
#X connect 270 1 269 0;
#X connect 271 0 283 0;
#X connect 272 0 271 1;
#X connect 272 1 271 2;
#X connect 272 2 271 3;
#X connect 272 3 271 4;
#X connect 273 0 271 0;
#X connect 273 1 272 0;
#X connect 274 0 283 0;
#X connect 275 0 274 1;
#X connect 275 1 274 2;
#X connect 275 2 274 3;
#X connect 275 3 274 4;
#X connect 276 0 274 0;
#X connect 276 1 275 0;
#X connect 277 0 283 0;
#X connect 278 0 277 1;
#X connect 278 1 277 2;
#X connect 278 2 277 3;
#X connect 278 3 277 4;
#X connect 279 0 277 0;
#X connect 279 1 278 0;
#X connect 280 0 283 0;
#X connect 281 0 280 1;
#X connect 281 1 280 2;
#X connect 281 2 280 3;
#X connect 281 3 280 4;
#X connect 282 0 280 0;
#X connect 282 1 281 0;
#X connect 283 0 252 1;
#X connect 284 0 314 0;
#X connect 285 0 284 1;
#X connect 285 1 284 2;
#X connect 285 2 284 3;
#X connect 285 3 284 4;
#X connect 286 0 284 0;
#X connect 286 1 285 0;
#X connect 287 0 314 0;
#X connect 288 0 287 1;
#X connect 288 1 287 2;
#X connect 288 2 287 3;
#X connect 288 3 287 4;
#X connect 289 0 287 0;
#X connect 289 1 288 0;
#X connect 290 0 314 0;
#X connect 291 0 290 1;
#X connect 291 1 290 2;
#X connect 291 2 290 3;
#X connect 291 3 290 4;
#X connect 292 0 290 0;
#X connect 292 1 291 0;
#X connect 293 0 314 0;
#X connect 294 0 293 1;
#X connect 294 1 293 2;
#X connect 294 2 293 3;
#X connect 294 3 293 4;
#X connect 295 0 293 0;
#X connect 295 1 294 0;
#X connect 296 0 314 0;
#X connect 297 0 296 1;
#X connect 297 1 296 2;
#X connect 297 2 296 3;
#X connect 297 3 296 4;
#X connect 298 0 296 0;
#X connect 298 1 297 0;
#X connect 299 0 314 0;
#X connect 300 0 299 1;
#X connect 300 1 299 2;
#X connect 300 2 299 3;
#X connect 300 3 299 4;
#X connect 301 0 299 0;
#X connect 301 1 300 0;
#X connect 302 0 314 0;
#X connect 303 0 302 1;
#X connect 303 1 302 2;
#X connect 303 2 302 3;
#X connect 303 3 302 4;
#X connect 304 0 302 0;
#X connect 304 1 303 0;
#X connect 305 0 314 0;
#X connect 306 0 305 1;
#X connect 306 1 305 2;
#X connect 306 2 305 3;
#X connect 306 3 305 4;
#X connect 307 0 305 0;
#X connect 307 1 306 0;
#X connect 308 0 314 0;
#X connect 309 0 308 1;
#X connect 309 1 308 2;
#X connect 309 2 308 3;
#X connect 309 3 308 4;
#X connect 310 0 308 0;
#X connect 310 1 309 0;
#X connect 311 0 314 0;
#X connect 312 0 311 1;
#X connect 312 1 311 2;
#X connect 312 2 311 3;
#X connect 312 3 311 4;
#X connect 313 0 311 0;
#X connect 313 1 312 0;
#X connect 314 0 283 1;
#X connect 315 0 163 0;
#X connect 315 1 166 0;
#X connect 315 2 169 0;
#X connect 315 3 172 0;
#X connect 315 4 175 0;
#X connect 315 5 178 0;
#X connect 315 6 181 0;
#X connect 315 7 184 0;
#X connect 315 8 187 0;
#X connect 315 9 190 0;
#X connect 315 10 316 0;
#X connect 316 0 193 0;
#X connect 316 1 196 0;
#X connect 316 2 199 0;
#X connect 316 3 202 0;
#X connect 316 4 205 0;
#X connect 316 5 208 0;
#X connect 316 6 211 0;
#X connect 316 7 214 0;
#X connect 316 8 217 0;
#X connect 316 9 220 0;
#X connect 316 10 317 0;
#X connect 317 0 224 0;
#X connect 317 1 227 0;
#X connect 317 2 230 0;
#X connect 317 3 233 0;
#X connect 317 4 236 0;
#X connect 317 5 239 0;
#X connect 317 6 242 0;
#X connect 317 7 245 0;
#X connect 317 8 248 0;
#X connect 317 9 251 0;
#X connect 317 10 318 0;
#X connect 318 0 255 0;
#X connect 318 1 258 0;
#X connect 318 2 261 0;
#X connect 318 3 264 0;
#X connect 318 4 267 0;
#X connect 318 5 270 0;
#X connect 318 6 273 0;
#X connect 318 7 276 0;
#X connect 318 8 279 0;
#X connect 318 9 282 0;
#X connect 318 10 319 0;
#X connect 319 0 286 0;
#X connect 319 1 289 0;
#X connect 319 2 292 0;
#X connect 319 3 295 0;
#X connect 319 4 298 0;
#X connect 319 5 301 0;
#X connect 319 6 304 0;
#X connect 319 7 307 0;
#X connect 319 8 310 0;
#X connect 319 9 313 0;
#X connect 319 10 322 0;
#X connect 320 0 0 0;
#X restore 428 706 pd poly-100-instrument(freq-mul-dur-color);
#N canvas 0 21 1366 724.906 poly-100-instrument(freq-mul-dur-color)
0;
#X obj 263 -1271 route 1 2 3 4 5 6 7 8 9 10;
#X obj 170 -640 +~;
#X obj 263 -624 instrument;
#X obj 276 -645 unpack 0 0 0 0;
#X obj 263 -666 t b l;
#X obj 278 -690 instrument;
#X obj 291 -711 unpack 0 0 0 0;
#X obj 278 -732 t b l;
#X obj 297 -754 instrument;
#X obj 310 -775 unpack 0 0 0 0;
#X obj 297 -796 t b l;
#X obj 312 -817 instrument;
#X obj 325 -838 unpack 0 0 0 0;
#X obj 312 -859 t b l;
#X obj 324 -882 instrument;
#X obj 337 -903 unpack 0 0 0 0;
#X obj 324 -924 t b l;
#X obj 339 -948 instrument;
#X obj 352 -969 unpack 0 0 0 0;
#X obj 339 -990 t b l;
#X obj 354 -1012 instrument;
#X obj 367 -1033 unpack 0 0 0 0;
#X obj 354 -1054 t b l;
#X obj 370 -1075 instrument;
#X obj 383 -1096 unpack 0 0 0 0;
#X obj 370 -1117 t b l;
#X obj 385 -1143 instrument;
#X obj 398 -1164 unpack 0 0 0 0;
#X obj 385 -1185 t b l;
#X obj 400 -1206 instrument;
#X obj 413 -1227 unpack 0 0 0 0;
#X obj 400 -1248 t b l;
#X obj 589 -623 instrument;
#X obj 602 -644 unpack 0 0 0 0;
#X obj 589 -665 t b l;
#X obj 606 -689 instrument;
#X obj 619 -710 unpack 0 0 0 0;
#X obj 606 -731 t b l;
#X obj 628 -753 instrument;
#X obj 641 -774 unpack 0 0 0 0;
#X obj 628 -795 t b l;
#X obj 652 -816 instrument;
#X obj 665 -837 unpack 0 0 0 0;
#X obj 652 -858 t b l;
#X obj 671 -881 instrument;
#X obj 684 -902 unpack 0 0 0 0;
#X obj 671 -923 t b l;
#X obj 693 -947 instrument;
#X obj 706 -968 unpack 0 0 0 0;
#X obj 693 -989 t b l;
#X obj 711 -1011 instrument;
#X obj 724 -1032 unpack 0 0 0 0;
#X obj 711 -1053 t b l;
#X obj 731 -1074 instrument;
#X obj 744 -1095 unpack 0 0 0 0;
#X obj 731 -1116 t b l;
#X obj 752 -1142 instrument;
#X obj 765 -1163 unpack 0 0 0 0;
#X obj 752 -1184 t b l;
#X obj 773 -1205 instrument;
#X obj 786 -1226 unpack 0 0 0 0;
#X obj 773 -1247 t b l;
#X obj 587 -1270 route 11 12 13 14 15 16 17 18 19 20;
#X obj 519 -668 +~;
#X obj 927 -627 instrument;
#X obj 940 -648 unpack 0 0 0 0;
#X obj 927 -669 t b l;
#X obj 944 -693 instrument;
#X obj 957 -714 unpack 0 0 0 0;
#X obj 944 -735 t b l;
#X obj 966 -757 instrument;
#X obj 979 -778 unpack 0 0 0 0;
#X obj 966 -799 t b l;
#X obj 990 -820 instrument;
#X obj 1003 -841 unpack 0 0 0 0;
#X obj 990 -862 t b l;
#X obj 1009 -885 instrument;
#X obj 1022 -906 unpack 0 0 0 0;
#X obj 1009 -927 t b l;
#X obj 1031 -951 instrument;
#X obj 1044 -972 unpack 0 0 0 0;
#X obj 1031 -993 t b l;
#X obj 1049 -1015 instrument;
#X obj 1062 -1036 unpack 0 0 0 0;
#X obj 1049 -1057 t b l;
#X obj 1069 -1078 instrument;
#X obj 1082 -1099 unpack 0 0 0 0;
#X obj 1069 -1120 t b l;
#X obj 1090 -1146 instrument;
#X obj 1103 -1167 unpack 0 0 0 0;
#X obj 1090 -1188 t b l;
#X obj 1111 -1209 instrument;
#X obj 1124 -1230 unpack 0 0 0 0;
#X obj 1111 -1251 t b l;
#X obj 879 -672 +~;
#X obj 925 -1274 route 21 22 23 24 25 26 27 28 29 30;
#X obj 1267 -627 instrument;
#X obj 1280 -648 unpack 0 0 0 0;
#X obj 1267 -669 t b l;
#X obj 1284 -693 instrument;
#X obj 1297 -714 unpack 0 0 0 0;
#X obj 1284 -735 t b l;
#X obj 1306 -757 instrument;
#X obj 1319 -778 unpack 0 0 0 0;
#X obj 1306 -799 t b l;
#X obj 1330 -820 instrument;
#X obj 1343 -841 unpack 0 0 0 0;
#X obj 1330 -862 t b l;
#X obj 1349 -885 instrument;
#X obj 1362 -906 unpack 0 0 0 0;
#X obj 1349 -927 t b l;
#X obj 1371 -951 instrument;
#X obj 1384 -972 unpack 0 0 0 0;
#X obj 1371 -993 t b l;
#X obj 1389 -1015 instrument;
#X obj 1402 -1036 unpack 0 0 0 0;
#X obj 1389 -1057 t b l;
#X obj 1409 -1078 instrument;
#X obj 1422 -1099 unpack 0 0 0 0;
#X obj 1409 -1120 t b l;
#X obj 1430 -1146 instrument;
#X obj 1443 -1167 unpack 0 0 0 0;
#X obj 1430 -1188 t b l;
#X obj 1451 -1209 instrument;
#X obj 1464 -1230 unpack 0 0 0 0;
#X obj 1451 -1251 t b l;
#X obj 1219 -672 +~;
#X obj 1265 -1271 route 31 32 33 34 35 36 37 38 39 40;
#X obj 1607 -627 instrument;
#X obj 1620 -648 unpack 0 0 0 0;
#X obj 1607 -669 t b l;
#X obj 1624 -693 instrument;
#X obj 1637 -714 unpack 0 0 0 0;
#X obj 1624 -735 t b l;
#X obj 1646 -757 instrument;
#X obj 1659 -778 unpack 0 0 0 0;
#X obj 1646 -799 t b l;
#X obj 1670 -820 instrument;
#X obj 1683 -841 unpack 0 0 0 0;
#X obj 1670 -862 t b l;
#X obj 1689 -885 instrument;
#X obj 1702 -906 unpack 0 0 0 0;
#X obj 1689 -927 t b l;
#X obj 1711 -951 instrument;
#X obj 1724 -972 unpack 0 0 0 0;
#X obj 1711 -993 t b l;
#X obj 1729 -1015 instrument;
#X obj 1742 -1036 unpack 0 0 0 0;
#X obj 1729 -1057 t b l;
#X obj 1749 -1078 instrument;
#X obj 1762 -1099 unpack 0 0 0 0;
#X obj 1749 -1120 t b l;
#X obj 1770 -1146 instrument;
#X obj 1783 -1167 unpack 0 0 0 0;
#X obj 1770 -1188 t b l;
#X obj 1791 -1209 instrument;
#X obj 1804 -1230 unpack 0 0 0 0;
#X obj 1791 -1251 t b l;
#X obj 1559 -672 +~;
#X obj 1605 -1271 route 41 42 43 44 45 46 47 48 49 50;
#X obj 184 38 +~;
#X obj 277 54 instrument;
#X obj 290 33 unpack 0 0 0 0;
#X obj 277 12 t b l;
#X obj 292 -12 instrument;
#X obj 305 -33 unpack 0 0 0 0;
#X obj 292 -54 t b l;
#X obj 311 -76 instrument;
#X obj 324 -97 unpack 0 0 0 0;
#X obj 311 -118 t b l;
#X obj 326 -139 instrument;
#X obj 339 -160 unpack 0 0 0 0;
#X obj 326 -181 t b l;
#X obj 338 -204 instrument;
#X obj 351 -225 unpack 0 0 0 0;
#X obj 338 -246 t b l;
#X obj 353 -270 instrument;
#X obj 366 -291 unpack 0 0 0 0;
#X obj 353 -312 t b l;
#X obj 368 -334 instrument;
#X obj 381 -355 unpack 0 0 0 0;
#X obj 368 -376 t b l;
#X obj 384 -397 instrument;
#X obj 397 -418 unpack 0 0 0 0;
#X obj 384 -439 t b l;
#X obj 399 -465 instrument;
#X obj 412 -486 unpack 0 0 0 0;
#X obj 399 -507 t b l;
#X obj 414 -528 instrument;
#X obj 427 -549 unpack 0 0 0 0;
#X obj 414 -570 t b l;
#X obj 603 55 instrument;
#X obj 616 34 unpack 0 0 0 0;
#X obj 603 13 t b l;
#X obj 620 -11 instrument;
#X obj 633 -32 unpack 0 0 0 0;
#X obj 620 -53 t b l;
#X obj 642 -75 instrument;
#X obj 655 -96 unpack 0 0 0 0;
#X obj 642 -117 t b l;
#X obj 666 -138 instrument;
#X obj 679 -159 unpack 0 0 0 0;
#X obj 666 -180 t b l;
#X obj 685 -203 instrument;
#X obj 698 -224 unpack 0 0 0 0;
#X obj 685 -245 t b l;
#X obj 707 -269 instrument;
#X obj 720 -290 unpack 0 0 0 0;
#X obj 707 -311 t b l;
#X obj 725 -333 instrument;
#X obj 738 -354 unpack 0 0 0 0;
#X obj 725 -375 t b l;
#X obj 745 -396 instrument;
#X obj 758 -417 unpack 0 0 0 0;
#X obj 745 -438 t b l;
#X obj 766 -464 instrument;
#X obj 779 -485 unpack 0 0 0 0;
#X obj 766 -506 t b l;
#X obj 787 -527 instrument;
#X obj 800 -548 unpack 0 0 0 0;
#X obj 787 -569 t b l;
#X obj 533 10 +~;
#X obj 941 51 instrument;
#X obj 954 30 unpack 0 0 0 0;
#X obj 941 9 t b l;
#X obj 958 -15 instrument;
#X obj 971 -36 unpack 0 0 0 0;
#X obj 958 -57 t b l;
#X obj 980 -79 instrument;
#X obj 993 -100 unpack 0 0 0 0;
#X obj 980 -121 t b l;
#X obj 1004 -142 instrument;
#X obj 1017 -163 unpack 0 0 0 0;
#X obj 1004 -184 t b l;
#X obj 1023 -207 instrument;
#X obj 1036 -228 unpack 0 0 0 0;
#X obj 1023 -249 t b l;
#X obj 1045 -273 instrument;
#X obj 1058 -294 unpack 0 0 0 0;
#X obj 1045 -315 t b l;
#X obj 1063 -337 instrument;
#X obj 1076 -358 unpack 0 0 0 0;
#X obj 1063 -379 t b l;
#X obj 1083 -400 instrument;
#X obj 1096 -421 unpack 0 0 0 0;
#X obj 1083 -442 t b l;
#X obj 1104 -468 instrument;
#X obj 1117 -489 unpack 0 0 0 0;
#X obj 1104 -510 t b l;
#X obj 1125 -531 instrument;
#X obj 1138 -552 unpack 0 0 0 0;
#X obj 1125 -573 t b l;
#X obj 893 6 +~;
#X obj 1281 51 instrument;
#X obj 1294 30 unpack 0 0 0 0;
#X obj 1281 9 t b l;
#X obj 1298 -15 instrument;
#X obj 1311 -36 unpack 0 0 0 0;
#X obj 1298 -57 t b l;
#X obj 1320 -79 instrument;
#X obj 1333 -100 unpack 0 0 0 0;
#X obj 1320 -121 t b l;
#X obj 1344 -142 instrument;
#X obj 1357 -163 unpack 0 0 0 0;
#X obj 1344 -184 t b l;
#X obj 1363 -207 instrument;
#X obj 1376 -228 unpack 0 0 0 0;
#X obj 1363 -249 t b l;
#X obj 1385 -273 instrument;
#X obj 1398 -294 unpack 0 0 0 0;
#X obj 1385 -315 t b l;
#X obj 1403 -337 instrument;
#X obj 1416 -358 unpack 0 0 0 0;
#X obj 1403 -379 t b l;
#X obj 1423 -400 instrument;
#X obj 1436 -421 unpack 0 0 0 0;
#X obj 1423 -442 t b l;
#X obj 1444 -468 instrument;
#X obj 1457 -489 unpack 0 0 0 0;
#X obj 1444 -510 t b l;
#X obj 1465 -531 instrument;
#X obj 1478 -552 unpack 0 0 0 0;
#X obj 1465 -573 t b l;
#X obj 1233 6 +~;
#X obj 1621 51 instrument;
#X obj 1634 30 unpack 0 0 0 0;
#X obj 1621 9 t b l;
#X obj 1638 -15 instrument;
#X obj 1651 -36 unpack 0 0 0 0;
#X obj 1638 -57 t b l;
#X obj 1660 -79 instrument;
#X obj 1673 -100 unpack 0 0 0 0;
#X obj 1660 -121 t b l;
#X obj 1684 -142 instrument;
#X obj 1697 -163 unpack 0 0 0 0;
#X obj 1684 -184 t b l;
#X obj 1703 -207 instrument;
#X obj 1716 -228 unpack 0 0 0 0;
#X obj 1703 -249 t b l;
#X obj 1725 -273 instrument;
#X obj 1738 -294 unpack 0 0 0 0;
#X obj 1725 -315 t b l;
#X obj 1743 -337 instrument;
#X obj 1756 -358 unpack 0 0 0 0;
#X obj 1743 -379 t b l;
#X obj 1763 -400 instrument;
#X obj 1776 -421 unpack 0 0 0 0;
#X obj 1763 -442 t b l;
#X obj 1784 -468 instrument;
#X obj 1797 -489 unpack 0 0 0 0;
#X obj 1784 -510 t b l;
#X obj 1805 -531 instrument;
#X obj 1818 -552 unpack 0 0 0 0;
#X obj 1805 -573 t b l;
#X obj 1573 6 +~;
#X obj 277 -593 route 51 52 53 54 55 56 57 58 59 60;
#X obj 601 -592 route 61 62 63 64 65 66 67 68 69 70;
#X obj 939 -596 route 71 72 73 74 75 76 77 78 79 80;
#X obj 1279 -593 route 81 82 83 84 85 86 87 88 89 90;
#X obj 1616 -593 route 91 92 93 94 95 96 97 98 99 100;
#X obj 59 -1269 inlet;
#X obj 64 81 outlet~;
#X obj 1861 71 outlet;
#X connect 0 0 4 0;
#X connect 0 1 7 0;
#X connect 0 2 10 0;
#X connect 0 3 13 0;
#X connect 0 4 16 0;
#X connect 0 5 19 0;
#X connect 0 6 22 0;
#X connect 0 7 25 0;
#X connect 0 8 28 0;
#X connect 0 9 31 0;
#X connect 0 10 62 0;
#X connect 1 0 321 0;
#X connect 2 0 1 0;
#X connect 3 0 2 1;
#X connect 3 1 2 2;
#X connect 3 2 2 3;
#X connect 3 3 2 4;
#X connect 4 0 2 0;
#X connect 4 1 3 0;
#X connect 5 0 1 0;
#X connect 6 0 5 1;
#X connect 6 1 5 2;
#X connect 6 2 5 3;
#X connect 6 3 5 4;
#X connect 7 0 5 0;
#X connect 7 1 6 0;
#X connect 8 0 1 0;
#X connect 9 0 8 1;
#X connect 9 1 8 2;
#X connect 9 2 8 3;
#X connect 9 3 8 4;
#X connect 10 0 8 0;
#X connect 10 1 9 0;
#X connect 11 0 1 0;
#X connect 12 0 11 1;
#X connect 12 1 11 2;
#X connect 12 2 11 3;
#X connect 12 3 11 4;
#X connect 13 0 11 0;
#X connect 13 1 12 0;
#X connect 14 0 1 0;
#X connect 15 0 14 1;
#X connect 15 1 14 2;
#X connect 15 2 14 3;
#X connect 15 3 14 4;
#X connect 16 0 14 0;
#X connect 16 1 15 0;
#X connect 17 0 1 0;
#X connect 18 0 17 1;
#X connect 18 1 17 2;
#X connect 18 2 17 3;
#X connect 18 3 17 4;
#X connect 19 0 17 0;
#X connect 19 1 18 0;
#X connect 20 0 1 0;
#X connect 21 0 20 1;
#X connect 21 1 20 2;
#X connect 21 2 20 3;
#X connect 21 3 20 4;
#X connect 22 0 20 0;
#X connect 22 1 21 0;
#X connect 23 0 1 0;
#X connect 24 0 23 1;
#X connect 24 1 23 2;
#X connect 24 2 23 3;
#X connect 24 3 23 4;
#X connect 25 0 23 0;
#X connect 25 1 24 0;
#X connect 26 0 1 0;
#X connect 27 0 26 1;
#X connect 27 1 26 2;
#X connect 27 2 26 3;
#X connect 27 3 26 4;
#X connect 28 0 26 0;
#X connect 28 1 27 0;
#X connect 29 0 1 0;
#X connect 30 0 29 1;
#X connect 30 1 29 2;
#X connect 30 2 29 3;
#X connect 30 3 29 4;
#X connect 31 0 29 0;
#X connect 31 1 30 0;
#X connect 32 0 63 0;
#X connect 33 0 32 1;
#X connect 33 1 32 2;
#X connect 33 2 32 3;
#X connect 33 3 32 4;
#X connect 34 0 32 0;
#X connect 34 1 33 0;
#X connect 35 0 63 0;
#X connect 36 0 35 1;
#X connect 36 1 35 2;
#X connect 36 2 35 3;
#X connect 36 3 35 4;
#X connect 37 0 35 0;
#X connect 37 1 36 0;
#X connect 38 0 63 0;
#X connect 39 0 38 1;
#X connect 39 1 38 2;
#X connect 39 2 38 3;
#X connect 39 3 38 4;
#X connect 40 0 38 0;
#X connect 40 1 39 0;
#X connect 41 0 63 0;
#X connect 42 0 41 1;
#X connect 42 1 41 2;
#X connect 42 2 41 3;
#X connect 42 3 41 4;
#X connect 43 0 41 0;
#X connect 43 1 42 0;
#X connect 44 0 63 0;
#X connect 45 0 44 1;
#X connect 45 1 44 2;
#X connect 45 2 44 3;
#X connect 45 3 44 4;
#X connect 46 0 44 0;
#X connect 46 1 45 0;
#X connect 47 0 63 0;
#X connect 48 0 47 1;
#X connect 48 1 47 2;
#X connect 48 2 47 3;
#X connect 48 3 47 4;
#X connect 49 0 47 0;
#X connect 49 1 48 0;
#X connect 50 0 63 0;
#X connect 51 0 50 1;
#X connect 51 1 50 2;
#X connect 51 2 50 3;
#X connect 51 3 50 4;
#X connect 52 0 50 0;
#X connect 52 1 51 0;
#X connect 53 0 63 0;
#X connect 54 0 53 1;
#X connect 54 1 53 2;
#X connect 54 2 53 3;
#X connect 54 3 53 4;
#X connect 55 0 53 0;
#X connect 55 1 54 0;
#X connect 56 0 63 0;
#X connect 57 0 56 1;
#X connect 57 1 56 2;
#X connect 57 2 56 3;
#X connect 57 3 56 4;
#X connect 58 0 56 0;
#X connect 58 1 57 0;
#X connect 59 0 63 0;
#X connect 60 0 59 1;
#X connect 60 1 59 2;
#X connect 60 2 59 3;
#X connect 60 3 59 4;
#X connect 61 0 59 0;
#X connect 61 1 60 0;
#X connect 62 0 34 0;
#X connect 62 1 37 0;
#X connect 62 2 40 0;
#X connect 62 3 43 0;
#X connect 62 4 46 0;
#X connect 62 5 49 0;
#X connect 62 6 52 0;
#X connect 62 7 55 0;
#X connect 62 8 58 0;
#X connect 62 9 61 0;
#X connect 62 10 95 0;
#X connect 63 0 1 1;
#X connect 64 0 94 0;
#X connect 65 0 64 1;
#X connect 65 1 64 2;
#X connect 65 2 64 3;
#X connect 65 3 64 4;
#X connect 66 0 64 0;
#X connect 66 1 65 0;
#X connect 67 0 94 0;
#X connect 68 0 67 1;
#X connect 68 1 67 2;
#X connect 68 2 67 3;
#X connect 68 3 67 4;
#X connect 69 0 67 0;
#X connect 69 1 68 0;
#X connect 70 0 94 0;
#X connect 71 0 70 1;
#X connect 71 1 70 2;
#X connect 71 2 70 3;
#X connect 71 3 70 4;
#X connect 72 0 70 0;
#X connect 72 1 71 0;
#X connect 73 0 94 0;
#X connect 74 0 73 1;
#X connect 74 1 73 2;
#X connect 74 2 73 3;
#X connect 74 3 73 4;
#X connect 75 0 73 0;
#X connect 75 1 74 0;
#X connect 76 0 94 0;
#X connect 77 0 76 1;
#X connect 77 1 76 2;
#X connect 77 2 76 3;
#X connect 77 3 76 4;
#X connect 78 0 76 0;
#X connect 78 1 77 0;
#X connect 79 0 94 0;
#X connect 80 0 79 1;
#X connect 80 1 79 2;
#X connect 80 2 79 3;
#X connect 80 3 79 4;
#X connect 81 0 79 0;
#X connect 81 1 80 0;
#X connect 82 0 94 0;
#X connect 83 0 82 1;
#X connect 83 1 82 2;
#X connect 83 2 82 3;
#X connect 83 3 82 4;
#X connect 84 0 82 0;
#X connect 84 1 83 0;
#X connect 85 0 94 0;
#X connect 86 0 85 1;
#X connect 86 1 85 2;
#X connect 86 2 85 3;
#X connect 86 3 85 4;
#X connect 87 0 85 0;
#X connect 87 1 86 0;
#X connect 88 0 94 0;
#X connect 89 0 88 1;
#X connect 89 1 88 2;
#X connect 89 2 88 3;
#X connect 89 3 88 4;
#X connect 90 0 88 0;
#X connect 90 1 89 0;
#X connect 91 0 94 0;
#X connect 92 0 91 1;
#X connect 92 1 91 2;
#X connect 92 2 91 3;
#X connect 92 3 91 4;
#X connect 93 0 91 0;
#X connect 93 1 92 0;
#X connect 94 0 63 1;
#X connect 95 0 66 0;
#X connect 95 1 69 0;
#X connect 95 2 72 0;
#X connect 95 3 75 0;
#X connect 95 4 78 0;
#X connect 95 5 81 0;
#X connect 95 6 84 0;
#X connect 95 7 87 0;
#X connect 95 8 90 0;
#X connect 95 9 93 0;
#X connect 95 10 127 0;
#X connect 96 0 126 0;
#X connect 97 0 96 1;
#X connect 97 1 96 2;
#X connect 97 2 96 3;
#X connect 97 3 96 4;
#X connect 98 0 96 0;
#X connect 98 1 97 0;
#X connect 99 0 126 0;
#X connect 100 0 99 1;
#X connect 100 1 99 2;
#X connect 100 2 99 3;
#X connect 100 3 99 4;
#X connect 101 0 99 0;
#X connect 101 1 100 0;
#X connect 102 0 126 0;
#X connect 103 0 102 1;
#X connect 103 1 102 2;
#X connect 103 2 102 3;
#X connect 103 3 102 4;
#X connect 104 0 102 0;
#X connect 104 1 103 0;
#X connect 105 0 126 0;
#X connect 106 0 105 1;
#X connect 106 1 105 2;
#X connect 106 2 105 3;
#X connect 106 3 105 4;
#X connect 107 0 105 0;
#X connect 107 1 106 0;
#X connect 108 0 126 0;
#X connect 109 0 108 1;
#X connect 109 1 108 2;
#X connect 109 2 108 3;
#X connect 109 3 108 4;
#X connect 110 0 108 0;
#X connect 110 1 109 0;
#X connect 111 0 126 0;
#X connect 112 0 111 1;
#X connect 112 1 111 2;
#X connect 112 2 111 3;
#X connect 112 3 111 4;
#X connect 113 0 111 0;
#X connect 113 1 112 0;
#X connect 114 0 126 0;
#X connect 115 0 114 1;
#X connect 115 1 114 2;
#X connect 115 2 114 3;
#X connect 115 3 114 4;
#X connect 116 0 114 0;
#X connect 116 1 115 0;
#X connect 117 0 126 0;
#X connect 118 0 117 1;
#X connect 118 1 117 2;
#X connect 118 2 117 3;
#X connect 118 3 117 4;
#X connect 119 0 117 0;
#X connect 119 1 118 0;
#X connect 120 0 126 0;
#X connect 121 0 120 1;
#X connect 121 1 120 2;
#X connect 121 2 120 3;
#X connect 121 3 120 4;
#X connect 122 0 120 0;
#X connect 122 1 121 0;
#X connect 123 0 126 0;
#X connect 124 0 123 1;
#X connect 124 1 123 2;
#X connect 124 2 123 3;
#X connect 124 3 123 4;
#X connect 125 0 123 0;
#X connect 125 1 124 0;
#X connect 126 0 94 1;
#X connect 127 0 98 0;
#X connect 127 1 101 0;
#X connect 127 2 104 0;
#X connect 127 3 107 0;
#X connect 127 4 110 0;
#X connect 127 5 113 0;
#X connect 127 6 116 0;
#X connect 127 7 119 0;
#X connect 127 8 122 0;
#X connect 127 9 125 0;
#X connect 127 10 159 0;
#X connect 128 0 158 0;
#X connect 129 0 128 1;
#X connect 129 1 128 2;
#X connect 129 2 128 3;
#X connect 129 3 128 4;
#X connect 130 0 128 0;
#X connect 130 1 129 0;
#X connect 131 0 158 0;
#X connect 132 0 131 1;
#X connect 132 1 131 2;
#X connect 132 2 131 3;
#X connect 132 3 131 4;
#X connect 133 0 131 0;
#X connect 133 1 132 0;
#X connect 134 0 158 0;
#X connect 135 0 134 1;
#X connect 135 1 134 2;
#X connect 135 2 134 3;
#X connect 135 3 134 4;
#X connect 136 0 134 0;
#X connect 136 1 135 0;
#X connect 137 0 158 0;
#X connect 138 0 137 1;
#X connect 138 1 137 2;
#X connect 138 2 137 3;
#X connect 138 3 137 4;
#X connect 139 0 137 0;
#X connect 139 1 138 0;
#X connect 140 0 158 0;
#X connect 141 0 140 1;
#X connect 141 1 140 2;
#X connect 141 2 140 3;
#X connect 141 3 140 4;
#X connect 142 0 140 0;
#X connect 142 1 141 0;
#X connect 143 0 158 0;
#X connect 144 0 143 1;
#X connect 144 1 143 2;
#X connect 144 2 143 3;
#X connect 144 3 143 4;
#X connect 145 0 143 0;
#X connect 145 1 144 0;
#X connect 146 0 158 0;
#X connect 147 0 146 1;
#X connect 147 1 146 2;
#X connect 147 2 146 3;
#X connect 147 3 146 4;
#X connect 148 0 146 0;
#X connect 148 1 147 0;
#X connect 149 0 158 0;
#X connect 150 0 149 1;
#X connect 150 1 149 2;
#X connect 150 2 149 3;
#X connect 150 3 149 4;
#X connect 151 0 149 0;
#X connect 151 1 150 0;
#X connect 152 0 158 0;
#X connect 153 0 152 1;
#X connect 153 1 152 2;
#X connect 153 2 152 3;
#X connect 153 3 152 4;
#X connect 154 0 152 0;
#X connect 154 1 153 0;
#X connect 155 0 158 0;
#X connect 156 0 155 1;
#X connect 156 1 155 2;
#X connect 156 2 155 3;
#X connect 156 3 155 4;
#X connect 157 0 155 0;
#X connect 157 1 156 0;
#X connect 158 0 126 1;
#X connect 159 0 130 0;
#X connect 159 1 133 0;
#X connect 159 2 136 0;
#X connect 159 3 139 0;
#X connect 159 4 142 0;
#X connect 159 5 145 0;
#X connect 159 6 148 0;
#X connect 159 7 151 0;
#X connect 159 8 154 0;
#X connect 159 9 157 0;
#X connect 159 10 315 0;
#X connect 160 0 1 1;
#X connect 161 0 160 0;
#X connect 162 0 161 1;
#X connect 162 1 161 2;
#X connect 162 2 161 3;
#X connect 162 3 161 4;
#X connect 163 0 161 0;
#X connect 163 1 162 0;
#X connect 164 0 160 0;
#X connect 165 0 164 1;
#X connect 165 1 164 2;
#X connect 165 2 164 3;
#X connect 165 3 164 4;
#X connect 166 0 164 0;
#X connect 166 1 165 0;
#X connect 167 0 160 0;
#X connect 168 0 167 1;
#X connect 168 1 167 2;
#X connect 168 2 167 3;
#X connect 168 3 167 4;
#X connect 169 0 167 0;
#X connect 169 1 168 0;
#X connect 170 0 160 0;
#X connect 171 0 170 1;
#X connect 171 1 170 2;
#X connect 171 2 170 3;
#X connect 171 3 170 4;
#X connect 172 0 170 0;
#X connect 172 1 171 0;
#X connect 173 0 160 0;
#X connect 174 0 173 1;
#X connect 174 1 173 2;
#X connect 174 2 173 3;
#X connect 174 3 173 4;
#X connect 175 0 173 0;
#X connect 175 1 174 0;
#X connect 176 0 160 0;
#X connect 177 0 176 1;
#X connect 177 1 176 2;
#X connect 177 2 176 3;
#X connect 177 3 176 4;
#X connect 178 0 176 0;
#X connect 178 1 177 0;
#X connect 179 0 160 0;
#X connect 180 0 179 1;
#X connect 180 1 179 2;
#X connect 180 2 179 3;
#X connect 180 3 179 4;
#X connect 181 0 179 0;
#X connect 181 1 180 0;
#X connect 182 0 160 0;
#X connect 183 0 182 1;
#X connect 183 1 182 2;
#X connect 183 2 182 3;
#X connect 183 3 182 4;
#X connect 184 0 182 0;
#X connect 184 1 183 0;
#X connect 185 0 160 0;
#X connect 186 0 185 1;
#X connect 186 1 185 2;
#X connect 186 2 185 3;
#X connect 186 3 185 4;
#X connect 187 0 185 0;
#X connect 187 1 186 0;
#X connect 188 0 160 0;
#X connect 189 0 188 1;
#X connect 189 1 188 2;
#X connect 189 2 188 3;
#X connect 189 3 188 4;
#X connect 190 0 188 0;
#X connect 190 1 189 0;
#X connect 191 0 221 0;
#X connect 192 0 191 1;
#X connect 192 1 191 2;
#X connect 192 2 191 3;
#X connect 192 3 191 4;
#X connect 193 0 191 0;
#X connect 193 1 192 0;
#X connect 194 0 221 0;
#X connect 195 0 194 1;
#X connect 195 1 194 2;
#X connect 195 2 194 3;
#X connect 195 3 194 4;
#X connect 196 0 194 0;
#X connect 196 1 195 0;
#X connect 197 0 221 0;
#X connect 198 0 197 1;
#X connect 198 1 197 2;
#X connect 198 2 197 3;
#X connect 198 3 197 4;
#X connect 199 0 197 0;
#X connect 199 1 198 0;
#X connect 200 0 221 0;
#X connect 201 0 200 1;
#X connect 201 1 200 2;
#X connect 201 2 200 3;
#X connect 201 3 200 4;
#X connect 202 0 200 0;
#X connect 202 1 201 0;
#X connect 203 0 221 0;
#X connect 204 0 203 1;
#X connect 204 1 203 2;
#X connect 204 2 203 3;
#X connect 204 3 203 4;
#X connect 205 0 203 0;
#X connect 205 1 204 0;
#X connect 206 0 221 0;
#X connect 207 0 206 1;
#X connect 207 1 206 2;
#X connect 207 2 206 3;
#X connect 207 3 206 4;
#X connect 208 0 206 0;
#X connect 208 1 207 0;
#X connect 209 0 221 0;
#X connect 210 0 209 1;
#X connect 210 1 209 2;
#X connect 210 2 209 3;
#X connect 210 3 209 4;
#X connect 211 0 209 0;
#X connect 211 1 210 0;
#X connect 212 0 221 0;
#X connect 213 0 212 1;
#X connect 213 1 212 2;
#X connect 213 2 212 3;
#X connect 213 3 212 4;
#X connect 214 0 212 0;
#X connect 214 1 213 0;
#X connect 215 0 221 0;
#X connect 216 0 215 1;
#X connect 216 1 215 2;
#X connect 216 2 215 3;
#X connect 216 3 215 4;
#X connect 217 0 215 0;
#X connect 217 1 216 0;
#X connect 218 0 221 0;
#X connect 219 0 218 1;
#X connect 219 1 218 2;
#X connect 219 2 218 3;
#X connect 219 3 218 4;
#X connect 220 0 218 0;
#X connect 220 1 219 0;
#X connect 221 0 160 1;
#X connect 222 0 252 0;
#X connect 223 0 222 1;
#X connect 223 1 222 2;
#X connect 223 2 222 3;
#X connect 223 3 222 4;
#X connect 224 0 222 0;
#X connect 224 1 223 0;
#X connect 225 0 252 0;
#X connect 226 0 225 1;
#X connect 226 1 225 2;
#X connect 226 2 225 3;
#X connect 226 3 225 4;
#X connect 227 0 225 0;
#X connect 227 1 226 0;
#X connect 228 0 252 0;
#X connect 229 0 228 1;
#X connect 229 1 228 2;
#X connect 229 2 228 3;
#X connect 229 3 228 4;
#X connect 230 0 228 0;
#X connect 230 1 229 0;
#X connect 231 0 252 0;
#X connect 232 0 231 1;
#X connect 232 1 231 2;
#X connect 232 2 231 3;
#X connect 232 3 231 4;
#X connect 233 0 231 0;
#X connect 233 1 232 0;
#X connect 234 0 252 0;
#X connect 235 0 234 1;
#X connect 235 1 234 2;
#X connect 235 2 234 3;
#X connect 235 3 234 4;
#X connect 236 0 234 0;
#X connect 236 1 235 0;
#X connect 237 0 252 0;
#X connect 238 0 237 1;
#X connect 238 1 237 2;
#X connect 238 2 237 3;
#X connect 238 3 237 4;
#X connect 239 0 237 0;
#X connect 239 1 238 0;
#X connect 240 0 252 0;
#X connect 241 0 240 1;
#X connect 241 1 240 2;
#X connect 241 2 240 3;
#X connect 241 3 240 4;
#X connect 242 0 240 0;
#X connect 242 1 241 0;
#X connect 243 0 252 0;
#X connect 244 0 243 1;
#X connect 244 1 243 2;
#X connect 244 2 243 3;
#X connect 244 3 243 4;
#X connect 245 0 243 0;
#X connect 245 1 244 0;
#X connect 246 0 252 0;
#X connect 247 0 246 1;
#X connect 247 1 246 2;
#X connect 247 2 246 3;
#X connect 247 3 246 4;
#X connect 248 0 246 0;
#X connect 248 1 247 0;
#X connect 249 0 252 0;
#X connect 250 0 249 1;
#X connect 250 1 249 2;
#X connect 250 2 249 3;
#X connect 250 3 249 4;
#X connect 251 0 249 0;
#X connect 251 1 250 0;
#X connect 252 0 221 1;
#X connect 253 0 283 0;
#X connect 254 0 253 1;
#X connect 254 1 253 2;
#X connect 254 2 253 3;
#X connect 254 3 253 4;
#X connect 255 0 253 0;
#X connect 255 1 254 0;
#X connect 256 0 283 0;
#X connect 257 0 256 1;
#X connect 257 1 256 2;
#X connect 257 2 256 3;
#X connect 257 3 256 4;
#X connect 258 0 256 0;
#X connect 258 1 257 0;
#X connect 259 0 283 0;
#X connect 260 0 259 1;
#X connect 260 1 259 2;
#X connect 260 2 259 3;
#X connect 260 3 259 4;
#X connect 261 0 259 0;
#X connect 261 1 260 0;
#X connect 262 0 283 0;
#X connect 263 0 262 1;
#X connect 263 1 262 2;
#X connect 263 2 262 3;
#X connect 263 3 262 4;
#X connect 264 0 262 0;
#X connect 264 1 263 0;
#X connect 265 0 283 0;
#X connect 266 0 265 1;
#X connect 266 1 265 2;
#X connect 266 2 265 3;
#X connect 266 3 265 4;
#X connect 267 0 265 0;
#X connect 267 1 266 0;
#X connect 268 0 283 0;
#X connect 269 0 268 1;
#X connect 269 1 268 2;
#X connect 269 2 268 3;
#X connect 269 3 268 4;
#X connect 270 0 268 0;
#X connect 270 1 269 0;
#X connect 271 0 283 0;
#X connect 272 0 271 1;
#X connect 272 1 271 2;
#X connect 272 2 271 3;
#X connect 272 3 271 4;
#X connect 273 0 271 0;
#X connect 273 1 272 0;
#X connect 274 0 283 0;
#X connect 275 0 274 1;
#X connect 275 1 274 2;
#X connect 275 2 274 3;
#X connect 275 3 274 4;
#X connect 276 0 274 0;
#X connect 276 1 275 0;
#X connect 277 0 283 0;
#X connect 278 0 277 1;
#X connect 278 1 277 2;
#X connect 278 2 277 3;
#X connect 278 3 277 4;
#X connect 279 0 277 0;
#X connect 279 1 278 0;
#X connect 280 0 283 0;
#X connect 281 0 280 1;
#X connect 281 1 280 2;
#X connect 281 2 280 3;
#X connect 281 3 280 4;
#X connect 282 0 280 0;
#X connect 282 1 281 0;
#X connect 283 0 252 1;
#X connect 284 0 314 0;
#X connect 285 0 284 1;
#X connect 285 1 284 2;
#X connect 285 2 284 3;
#X connect 285 3 284 4;
#X connect 286 0 284 0;
#X connect 286 1 285 0;
#X connect 287 0 314 0;
#X connect 288 0 287 1;
#X connect 288 1 287 2;
#X connect 288 2 287 3;
#X connect 288 3 287 4;
#X connect 289 0 287 0;
#X connect 289 1 288 0;
#X connect 290 0 314 0;
#X connect 291 0 290 1;
#X connect 291 1 290 2;
#X connect 291 2 290 3;
#X connect 291 3 290 4;
#X connect 292 0 290 0;
#X connect 292 1 291 0;
#X connect 293 0 314 0;
#X connect 294 0 293 1;
#X connect 294 1 293 2;
#X connect 294 2 293 3;
#X connect 294 3 293 4;
#X connect 295 0 293 0;
#X connect 295 1 294 0;
#X connect 296 0 314 0;
#X connect 297 0 296 1;
#X connect 297 1 296 2;
#X connect 297 2 296 3;
#X connect 297 3 296 4;
#X connect 298 0 296 0;
#X connect 298 1 297 0;
#X connect 299 0 314 0;
#X connect 300 0 299 1;
#X connect 300 1 299 2;
#X connect 300 2 299 3;
#X connect 300 3 299 4;
#X connect 301 0 299 0;
#X connect 301 1 300 0;
#X connect 302 0 314 0;
#X connect 303 0 302 1;
#X connect 303 1 302 2;
#X connect 303 2 302 3;
#X connect 303 3 302 4;
#X connect 304 0 302 0;
#X connect 304 1 303 0;
#X connect 305 0 314 0;
#X connect 306 0 305 1;
#X connect 306 1 305 2;
#X connect 306 2 305 3;
#X connect 306 3 305 4;
#X connect 307 0 305 0;
#X connect 307 1 306 0;
#X connect 308 0 314 0;
#X connect 309 0 308 1;
#X connect 309 1 308 2;
#X connect 309 2 308 3;
#X connect 309 3 308 4;
#X connect 310 0 308 0;
#X connect 310 1 309 0;
#X connect 311 0 314 0;
#X connect 312 0 311 1;
#X connect 312 1 311 2;
#X connect 312 2 311 3;
#X connect 312 3 311 4;
#X connect 313 0 311 0;
#X connect 313 1 312 0;
#X connect 314 0 283 1;
#X connect 315 0 163 0;
#X connect 315 1 166 0;
#X connect 315 2 169 0;
#X connect 315 3 172 0;
#X connect 315 4 175 0;
#X connect 315 5 178 0;
#X connect 315 6 181 0;
#X connect 315 7 184 0;
#X connect 315 8 187 0;
#X connect 315 9 190 0;
#X connect 315 10 316 0;
#X connect 316 0 193 0;
#X connect 316 1 196 0;
#X connect 316 2 199 0;
#X connect 316 3 202 0;
#X connect 316 4 205 0;
#X connect 316 5 208 0;
#X connect 316 6 211 0;
#X connect 316 7 214 0;
#X connect 316 8 217 0;
#X connect 316 9 220 0;
#X connect 316 10 317 0;
#X connect 317 0 224 0;
#X connect 317 1 227 0;
#X connect 317 2 230 0;
#X connect 317 3 233 0;
#X connect 317 4 236 0;
#X connect 317 5 239 0;
#X connect 317 6 242 0;
#X connect 317 7 245 0;
#X connect 317 8 248 0;
#X connect 317 9 251 0;
#X connect 317 10 318 0;
#X connect 318 0 255 0;
#X connect 318 1 258 0;
#X connect 318 2 261 0;
#X connect 318 3 264 0;
#X connect 318 4 267 0;
#X connect 318 5 270 0;
#X connect 318 6 273 0;
#X connect 318 7 276 0;
#X connect 318 8 279 0;
#X connect 318 9 282 0;
#X connect 318 10 319 0;
#X connect 319 0 286 0;
#X connect 319 1 289 0;
#X connect 319 2 292 0;
#X connect 319 3 295 0;
#X connect 319 4 298 0;
#X connect 319 5 301 0;
#X connect 319 6 304 0;
#X connect 319 7 307 0;
#X connect 319 8 310 0;
#X connect 319 9 313 0;
#X connect 319 10 322 0;
#X connect 320 0 0 0;
#X restore 677 786 pd poly-100-instrument(freq-mul-dur-color);
#X obj 677 746 - 100;
#X obj 677 766 pack 0 0 0 0 0;
#X obj 677 726 unpack 0 0 0 0 0;
#X obj 216 268 unpack;
#X obj 216 312 moses 0.005;
#X obj 216 291 abs;
#X obj 292 510 pack;
#X obj 422 180 vsl 15 128 0 0.1 0 0 empty empty empty 0 -9 0 10 -262144
-1 -1 1270 1;
#X text 439 207 intensity filter;
#X floatatom 422 318 5 0 0 0 - - -, f 5;
#X msg 847 567 0.15;
#X obj 761 564 *;
#X text 801 500 freq mul;
#X text 864 620 note dur;
#X obj 348 88 vsl 15 128 1 100 0 0 empty empty empty 0 -9 0 10 -262144
-1 -1 5003 1;
#X obj 148 220 / 1;
#X msg -443 164 0.002 0.05 0.15 0.4 0.2 0.15;
#X obj 760 584 ftom;
#X obj 760 622 mtof;
#X text 369 84 speed;
#X obj 569 192 vsl 15 128 0 10000 0 0 empty empty empty 0 -9 0 10 -262144
-1 -1 12700 1;
#X floatatom 569 337 5 0 0 0 - - -, f 5;
#X obj 455 363 moses 1000;
#X obj 279 474 spigot;
#X obj 311 454 tgl 15 0 empty empty empty 17 7 0 10 -262144 -1 -1 0
1;
#X obj 344 285 mtof;
#X floatatom 348 226 5 0 0 0 - - -, f 5;
#X msg 181 65 read despacito.txt cr \, rewind;
#X msg 776 459 1;
#X text 589 279 lowp filter;
#X obj 790 602 int;
#X obj 631 327 vsl 15 128 0 10000 0 0 empty empty empty 0 -9 0 10 -262144
-1 -1 102 1;
#X floatatom 631 472 5 0 0 0 - - -, f 5;
#X obj 455 454 moses 1000;
#X text 651 414 hip filter;
#X obj 340 349 t b f;
#X msg 335 376 1;
#X msg 357 434 0;
#X msg 424 155 0.01;
#X msg 569 170 10000;
#X msg 676 301 80;
#X msg 461 67 40;
#X msg 429 685 \$1 \$2 \$3 \$4 0, f 14;
#N canvas 331 142 611 488.062 conclusions 0;
#X text 182 317 Andres;
#X text 23 9 1);
#X text 23 124 2);
#X text 23 266 3);
#X text 38 266 Questions?;
#X text 146 302 Thank you very much!!;
#X text 39 9 There are many interesting techniques for processing sound.
Today I showed one of them \, concatenative synthesis \, which offers
a bridge between any two sounds (for instance \, voice and marimba).
It shows promising results but it's still in experimental phase (especially
the live-electronic part \, but we're working on that). If you have
some idea and are wondering about using this just let me know! I will
be very happy to explore new possibilities :);
#X text 38 124 The HfMDK has an amazing studio for electronic music
(SELMA). There \, composition students can learn this programs and
techniques (besides instrumental composition). The professor Orm Finnendahl
and his tutors offer seminars covering all this topics \, but not only
for the composition students: the seminars are **OPEN FOR EVERYONE**
so if you are interested check the Vorlesungsverzeichnis-FB2. Also
\, if you are looking for any kind of collaboration involving composition
with electronics it is a good place to look: All composition students
gather there on Tuesdays at 6pm.;
#X restore -113 749 pd conclusions;
#X obj 977 724 vsl 15 50 0 1 0 0 empty empty empty 0 -9 0 10 -258049
-1 -1 0 1;
#X msg 977 784 \$1 20;
#X obj 977 806 line~;
#X obj 429 823 *~;
#X obj 429 845 dac~;
#X msg 936 566 0.1;
#X obj 886 119 t b;
#X obj 886 99 bng 15 250 50 0 empty empty empty 17 7 0 10 -262144 -1
-1;
#X obj 886 76 loadbang;
#X obj -168 145 loadbang;
#N canvas 173 189 450 515 playwav[start-dur-filename-fade[-STOP 0;
#X obj 123 38 inlet;
#X obj 132 329 outlet~;
#X obj 181 329 outlet;
#X text 88 330 signal;
#X obj 132 288 readsf~;
#X obj 132 125 pack f s;
#X obj 123 106 * 44100;
#X obj 70 148 * 1000;
#X obj 70 167 del;
#X msg 70 186 stop;
#X obj 287 291 line~;
#X obj 132 308 *~;
#X msg 132 144 open \$2 \$1 \, start;
#X text 71 16 list <START*> <DUR*> <FILENAME*> \, <FADE*> *in seconds
;
#X obj 123 57 unpack f f s f;
#X obj 332 242 + 1;
#X obj 189 165 -;
#X obj 189 227 del;
#X msg 230 244 0, f 2;
#X obj 287 261 pack 0 0;
#X obj 138 177 bng 15 250 50 0 empty empty empty 17 7 0 10 -262144
-1 -1;
#X obj 332 148 * 1000;
#X obj 236 219 del 5;
#X msg 138 260 0 5;
#X text 161 262 1 first set to 0;
#X text 240 202 2 then set to red volume;
#X text 178 180 3 finally reset to 0;
#X text 225 328 finished BEFORE SPECIFIED LENGTH;
#X msg 287 236 1;
#X obj 372 56 inlet;
#X obj 372 78 bng 15 250 50 0 empty empty empty 17 7 0 10 -262144 -1
-1;
#X connect 0 0 14 0;
#X connect 4 0 11 0;
#X connect 4 1 2 0;
#X connect 5 0 12 0;
#X connect 6 0 5 0;
#X connect 7 0 8 0;
#X connect 7 0 16 0;
#X connect 8 0 9 0;
#X connect 9 0 4 0;
#X connect 10 0 11 1;
#X connect 11 0 1 0;
#X connect 12 0 4 0;
#X connect 12 0 20 0;
#X connect 14 0 6 0;
#X connect 14 1 7 0;
#X connect 14 2 5 1;
#X connect 14 3 21 0;
#X connect 15 0 19 1;
#X connect 16 0 17 0;
#X connect 17 0 18 0;
#X connect 18 0 19 0;
#X connect 19 0 10 0;
#X connect 20 0 22 0;
#X connect 20 0 23 0;
#X connect 21 0 15 0;
#X connect 21 0 16 1;
#X connect 22 0 28 0;
#X connect 23 0 10 0;
#X connect 28 0 19 0;
#X connect 29 0 30 0;
#X connect 30 0 9 0;
#X restore -170 609 pd playwav[start-dur-filename-fade[-STOP;
#X obj -169 563 bng 15 250 50 0 empty empty empty 17 7 0 10 -262144
-1 -1;
#X obj 67 589 bng 15 250 50 0 empty empty empty 17 7 0 10 -262144 -1
-1;
#X msg -170 586 0 200 despacito-marimba.wav 0.5;
#X connect 0 0 6 3;
#X connect 1 0 6 2;
#X connect 2 0 6 1;
#X connect 3 0 6 0;
#X connect 5 0 6 5;
#X connect 6 0 9 0;
#X connect 7 0 6 6;
#X connect 7 0 10 0;
#X connect 8 0 6 7;
#X connect 11 0 3 0;
#X connect 11 1 2 0;
#X connect 11 2 1 0;
#X connect 11 3 0 0;
#X connect 11 4 5 0;
#X connect 11 5 7 0;
#X connect 12 0 11 0;
#X connect 13 0 14 0;
#X connect 17 0 18 0;
#X connect 18 0 22 0;
#X connect 18 1 47 0;
#X connect 19 0 17 0;
#X connect 20 0 21 1;
#X connect 21 0 23 0;
#X connect 21 0 59 0;
#X connect 22 0 21 0;
#X connect 22 1 20 1;
#X connect 23 0 20 0;
#X connect 24 0 19 0;
#X connect 25 0 24 0;
#X connect 26 0 27 0;
#X connect 27 0 19 0;
#X connect 27 1 71 0;
#X connect 27 1 31 0;
#X connect 28 0 20 0;
#X connect 29 0 55 1;
#X connect 30 0 40 0;
#X connect 30 0 33 0;
#X connect 31 0 30 1;
#X connect 32 0 30 1;
#X connect 33 0 38 0;
#X connect 34 0 38 2;
#X connect 34 1 55 0;
#X connect 35 0 30 0;
#X connect 35 1 34 0;
#X connect 38 0 86 0;
#X connect 39 0 38 3;
#X connect 40 0 32 0;
#X connect 41 0 91 0;
#X connect 42 0 41 0;
#X connect 42 1 46 0;
#X connect 43 0 41 0;
#X connect 44 0 45 0;
#X connect 45 0 43 0;
#X connect 46 0 44 0;
#X connect 46 1 45 1;
#X connect 46 2 45 2;
#X connect 46 3 45 3;
#X connect 46 4 45 4;
#X connect 47 0 49 0;
#X connect 47 1 69 0;
#X connect 48 1 67 0;
#X connect 49 0 48 0;
#X connect 50 0 35 0;
#X connect 51 0 48 1;
#X connect 51 0 53 0;
#X connect 54 0 39 0;
#X connect 55 0 61 0;
#X connect 58 0 59 1;
#X connect 58 0 70 0;
#X connect 59 0 24 0;
#X connect 60 0 11 0;
#X connect 61 0 62 0;
#X connect 62 0 38 1;
#X connect 64 0 65 0;
#X connect 64 0 66 1;
#X connect 66 0 77 0;
#X connect 66 1 81 0;
#X connect 67 0 50 0;
#X connect 68 0 67 1;
#X connect 69 0 79 0;
#X connect 71 0 17 0;
#X connect 71 0 28 0;
#X connect 72 0 29 0;
#X connect 75 0 76 0;
#X connect 75 0 77 1;
#X connect 77 0 81 0;
#X connect 77 1 50 1;
#X connect 79 0 80 0;
#X connect 79 1 66 0;
#X connect 80 0 68 0;
#X connect 81 0 68 0;
#X connect 82 0 51 0;
#X connect 83 0 64 0;
#X connect 84 0 75 0;
#X connect 85 0 58 0;
#X connect 86 0 42 0;
#X connect 88 0 89 0;
#X connect 89 0 90 0;
#X connect 90 0 91 1;
#X connect 91 0 92 0;
#X connect 91 0 92 1;
#X connect 93 0 88 0;
#X connect 94 0 85 0;
#X connect 94 0 82 0;
#X connect 94 0 83 0;
#X connect 94 0 84 0;
#X connect 94 0 72 0;
#X connect 94 0 54 0;
#X connect 94 0 93 0;
#X connect 95 0 94 0;
#X connect 96 0 95 0;
#X connect 97 0 12 0;
#X connect 98 0 41 0;
#X connect 99 0 101 0;
#X connect 100 0 98 1;
#X connect 101 0 98 0;
