#N canvas 75 78 977 647 10;
#X obj 100 100 cnv 15 470 102 empty empty nanoKONTROL2 20 12 0 14 -228856
-1 0;
#X obj 414 133 vsl 15 60 0 1 0 0 \$0-nano5 nano5_p empty 0 -9 0 10
-1 -262144 -262144 0 1;
#X obj 394 131 tgl 15 0 \$0-nano5S nano5S_p S 4 8 0 11 -33289 -258113
-262144 0 1;
#X obj 394 151 tgl 15 0 \$0-nano5M nano5M_p M 4 8 0 11 -33289 -258113
-262144 0 1;
#X obj 394 171 tgl 15 0 \$0-nano5R nano5R_p R 4 8 0 11 -33289 -258113
-262144 0 1;
#X obj 458 133 vsl 15 60 0 1 0 0 \$0-nano6 nano6_p empty 0 -9 0 10
-1 -262144 -262144 0 1;
#X obj 438 131 tgl 15 0 \$0-nano6S nano6S_p S 4 8 0 11 -33289 -258113
-262144 0 1;
#X obj 438 151 tgl 15 0 \$0-nano6M nano6M_p M 4 8 0 11 -33289 -258113
-262144 0 1;
#X obj 438 171 tgl 15 0 \$0-nano6R nano6R_p R 4 8 0 11 -33289 -258113
-262144 0 1;
#X obj 501 133 vsl 15 60 0 1 0 0 \$0-nano7 nano7_p empty 0 -9 0 10
-1 -262144 -262144 0 1;
#X obj 482 131 tgl 15 0 \$0-nano7S nano7S_p S 4 8 0 11 -33289 -258113
-262144 0 1;
#X obj 482 151 tgl 15 0 \$0-nano7M nano7M_p M 4 8 0 11 -33289 -258113
-262144 0 1;
#X obj 482 171 tgl 15 0 \$0-nano7R nano7R_p R 4 8 0 11 -33289 -258113
-262144 0 1;
#X obj 546 133 vsl 15 60 0 1 0 0 \$0-nano8 nano8_p empty 0 -9 0 10
-1 -262144 -262144 0 1;
#X obj 526 131 tgl 15 0 \$0-nano8S nano8S_p S 4 8 0 11 -33289 -258113
-262144 0 1;
#X obj 526 151 tgl 15 0 \$0-nano8M nano8M_p M 4 8 0 11 -33289 -258113
-262144 0 1;
#X obj 526 171 tgl 15 0 \$0-nano8R nano8R_p R 4 8 0 11 -33289 -258113
-262144 0 1;
#X obj 238 133 vsl 15 60 0 1 0 0 \$0-nano1 nano1_p empty 0 -9 0 10
-1 -262144 -262144 0 1;
#X obj 218 131 tgl 15 0 \$0-nano1S nano1S_p S 4 8 0 11 -33289 -262144
-262144 0 1;
#X obj 218 151 tgl 15 0 \$0-nano1M nano1M_p M 4 8 0 11 -33289 -258113
-262144 0 1;
#X obj 218 171 tgl 15 0 \$0-nano1R nano1R_p R 4 8 0 11 -33289 -257985
-262144 0 1;
#X obj 282 133 vsl 15 60 0 1 0 0 \$0-nano2 nano2_p empty 0 -9 0 10
-1 -262144 -262144 0 1;
#X obj 262 131 tgl 15 0 \$0-nano2S nano2S_p S 4 8 0 11 -33289 -258113
-262144 0 1;
#X obj 262 151 tgl 15 0 \$0-nano2M nano2M_p M 4 8 0 11 -33289 -258113
-262144 0 1;
#X obj 262 171 tgl 15 0 \$0-nano2R nano2R_p R 4 8 0 11 -33289 -258113
-262144 0 1;
#X obj 326 133 vsl 15 60 0 1 0 0 \$0-nano3 nano3_p empty 0 -9 0 10
-1 -262144 -262144 0 1;
#X obj 306 131 tgl 15 0 \$0-nano3S nano3S_p S 4 8 0 11 -33289 -258113
-262144 0 1;
#X obj 306 151 tgl 15 0 \$0-nano3M nano3M_p M 4 8 0 11 -33289 -258113
-262144 0 1;
#X obj 306 171 tgl 15 0 \$0-nano3R nano3R_p R 4 8 0 11 -33289 -258113
-262144 0 1;
#X obj 370 133 vsl 15 60 0 1 0 0 \$0-nano4 nano4_p empty 0 -9 0 10
-1 -262144 -262144 0 1;
#X obj 350 131 tgl 15 0 \$0-nano4S nano4S_p S 4 8 0 11 -33289 -258113
-262144 0 1;
#X obj 350 151 tgl 15 0 \$0-nano4M nano4M_p M 4 8 0 11 -33289 -258113
-262144 0 1;
#X obj 350 171 tgl 15 0 \$0-nano4R nano4R_p R 4 8 0 11 -33289 -258113
-262144 0 1;
#X obj 111 169 tgl 17 0 \$0-rewind \$0-rewind_p << 3 8 0 10 -33289
-258113 -262144 0 1;
#X obj 131 169 tgl 17 0 \$0-forward \$0-forward_p >> 3 8 0 10 -33289
-258113 -262144 0 1;
#X obj 151 169 tgl 17 0 \$0-stop \$0-stop_p [] 3 8 0 10 -33289 -258113
-262144 0 1;
#X obj 171 169 tgl 17 0 \$0-play \$0-play_p > 6 9 0 12 -33289 -258113
-262144 0 1;
#X obj 191 169 tgl 17 0 \$0-record \$0-record_p o 5 8 0 11 -33289 -258113
-262144 0 1;
#X obj 111 132 bng 8 250 50 0 \$0-trackback empty empty 17 7 0 10 -262144
-1 -1;
#X obj 120 132 bng 8 250 50 0 \$0-trackback empty empty 17 7 0 10 -262144
-1 -1;
#X obj 111 132 cnv 8 17 8 empty \$0-trackback_p < 6 4 0 10 -33289 -262144
0;
#X obj 141 132 bng 8 250 50 0 \$0-trackforward empty empty 17 7 0 10
-262144 -1 -1;
#X obj 150 132 bng 8 250 50 0 \$0-trackforward empty empty 17 7 0 10
-262144 -1 -1;
#X obj 141 132 cnv 8 17 8 empty \$0-trackforward_p > 6 4 0 10 -33289
-262144 0;
#X obj 145 151 bng 9 250 50 0 \$0-markerset empty empty 17 7 0 10 -262144
-1 -1;
#X obj 155 151 bng 9 250 50 0 \$0-markerset empty empty 17 7 0 10 -262144
-1 -1;
#X obj 145 151 cnv 9 19 9 empty \$0-markerset_p set 3 4 0 8 -33289
-262144 0;
#X obj 167 151 bng 9 250 50 0 \$0-markerback empty empty 17 7 0 10
-262144 -1 -1;
#X obj 177 151 bng 9 250 50 0 \$0-markerback empty empty 17 7 0 10
-262144 -1 -1;
#X obj 167 151 cnv 9 19 9 empty \$0-markerback_p < 7 4 0 10 -33289
-262144 0;
#X obj 111 151 bng 9 250 50 0 \$0-cycle empty empty 17 7 0 10 -262144
-1 -1;
#X obj 121 151 bng 9 250 50 0 \$0-cycle empty empty 17 7 0 10 -262144
-1 -1;
#X obj 111 151 cnv 9 19 9 empty \$0-cycle_p cycle 0 4 0 6 -33289 -262144
0;
#X obj 189 151 bng 9 250 50 0 \$0-markerforward empty empty 17 7 0
10 -262144 -1 -1;
#X obj 199 151 bng 9 250 50 0 \$0-markerforward empty empty 17 7 0
10 -262144 -1 -1;
#X obj 189 151 cnv 9 19 9 empty \$0-markerforward_p > 7 4 0 10 -33289
-262144 0;
#N canvas 175 55 673 404 Track 0;
#X obj 89 -62 ctlin 58;
#X floatatom 89 -11 5 0 0 0 - - -, f 5;
#X obj 89 41 tgl 15 0 empty empty TrackBack_status 17 7 0 10 -262144
-1 -1 0 1;
#X obj 89 14 / 127;
#X obj 116 93 sel 0 1;
#X msg 116 117 12;
#X obj 89 274 outlet;
#X obj 89 62 t f f;
#X floatatom 299 -11 5 0 0 0 - - -, f 5;
#X obj 299 41 tgl 15 0 empty empty TrackForward_status 17 7 0 10 -262144
-1 -1 0 1;
#X obj 299 14 / 127;
#X obj 326 93 sel 0 1;
#X msg 326 117 12;
#X obj 299 62 t f f;
#X obj 299 -62 ctlin 59;
#X floatatom 529 -11 5 0 0 0 - - -, f 5;
#X obj 529 41 tgl 15 0 empty empty TrackCycle_status 17 7 0 10 -262144
-1 -1 0 1;
#X obj 529 14 / 127;
#X obj 556 93 sel 0 1;
#X msg 556 117 12;
#X msg 586 117 13;
#X obj 529 62 t f f;
#X obj 529 -62 ctlin 46;
#X obj 33 -32 r \$0-trackback;
#X obj 116 174 s \$0-trackback_p;
#X msg 116 146 color \$1;
#X obj 227 -32 r \$0-trackforward;
#X obj 326 174 s \$0-trackforward_p;
#X msg 326 146 color \$1;
#X obj 473 -32 r \$0-cycle;
#X obj 556 174 s \$0-cycle_p;
#X msg 556 146 color \$1;
#X msg 89 206 trackback \$1;
#X msg 299 206 trackforward \$1;
#X msg 529 206 cycle \$1;
#X msg 146 117 28;
#X msg 356 117 28;
#X connect 0 0 1 0;
#X connect 1 0 3 0;
#X connect 2 0 7 0;
#X connect 3 0 2 0;
#X connect 4 0 5 0;
#X connect 4 1 35 0;
#X connect 5 0 25 0;
#X connect 7 0 32 0;
#X connect 7 1 4 0;
#X connect 8 0 10 0;
#X connect 9 0 13 0;
#X connect 10 0 9 0;
#X connect 11 0 12 0;
#X connect 11 1 36 0;
#X connect 12 0 28 0;
#X connect 13 0 33 0;
#X connect 13 1 11 0;
#X connect 14 0 8 0;
#X connect 15 0 17 0;
#X connect 16 0 21 0;
#X connect 17 0 16 0;
#X connect 18 0 19 0;
#X connect 18 1 20 0;
#X connect 19 0 31 0;
#X connect 20 0 31 0;
#X connect 21 0 34 0;
#X connect 21 1 18 0;
#X connect 22 0 15 0;
#X connect 23 0 2 0;
#X connect 25 0 24 0;
#X connect 26 0 9 0;
#X connect 28 0 27 0;
#X connect 29 0 16 0;
#X connect 31 0 30 0;
#X connect 32 0 6 0;
#X connect 33 0 6 0;
#X connect 34 0 6 0;
#X connect 35 0 25 0;
#X connect 36 0 28 0;
#X restore 120 267 pd Track;
#N canvas 412 65 611 355 Marker 0;
#X floatatom 109 9 5 0 0 0 - - -, f 5;
#X obj 109 61 tgl 15 0 empty empty TrackForward_status 17 7 0 10 -262144
-1 -1 0 1;
#X obj 109 34 / 127;
#X obj 136 113 sel 0 1;
#X msg 136 137 12;
#X msg 166 137 13;
#X obj 109 82 t f f;
#X obj 109 -42 ctlin 60;
#X floatatom 269 9 5 0 0 0 - - -, f 5;
#X obj 269 61 tgl 15 0 empty empty TrackBack_status 17 7 0 10 -262144
-1 -1 0 1;
#X obj 269 34 / 127;
#X obj 296 113 sel 0 1;
#X msg 296 137 12;
#X msg 326 137 13;
#X obj 269 82 t f f;
#X obj 269 -42 ctlin 61;
#X floatatom 429 9 5 0 0 0 - - -, f 5;
#X obj 429 61 tgl 15 0 empty empty TrackForward_status 17 7 0 10 -262144
-1 -1 0 1;
#X obj 429 34 / 127;
#X obj 456 113 sel 0 1;
#X msg 456 137 12;
#X msg 486 137 13;
#X obj 429 82 t f f;
#X obj 429 -42 ctlin 62;
#X obj 53 -12 r \$0-markerset;
#X obj 136 194 s \$0-markerset_p;
#X msg 136 166 color \$1;
#X obj 109 284 outlet;
#X msg 109 237 markerset \$1;
#X msg 296 166 color \$1;
#X msg 456 166 color \$1;
#X obj 213 -12 r \$0-markerback;
#X obj 296 194 s \$0-markerback_p;
#X obj 373 -12 r \$0-markerforward;
#X obj 456 194 s \$0-markerforward_p;
#X msg 269 237 markerback \$1;
#X msg 429 237 markerforward \$1;
#X connect 0 0 2 0;
#X connect 1 0 6 0;
#X connect 2 0 1 0;
#X connect 3 0 4 0;
#X connect 3 1 5 0;
#X connect 4 0 26 0;
#X connect 5 0 26 0;
#X connect 6 0 28 0;
#X connect 6 1 3 0;
#X connect 7 0 0 0;
#X connect 8 0 10 0;
#X connect 9 0 14 0;
#X connect 10 0 9 0;
#X connect 11 0 12 0;
#X connect 11 1 13 0;
#X connect 12 0 29 0;
#X connect 13 0 29 0;
#X connect 14 0 35 0;
#X connect 14 1 11 0;
#X connect 15 0 8 0;
#X connect 16 0 18 0;
#X connect 17 0 22 0;
#X connect 18 0 17 0;
#X connect 19 0 20 0;
#X connect 19 1 21 0;
#X connect 20 0 30 0;
#X connect 21 0 30 0;
#X connect 22 0 36 0;
#X connect 22 1 19 0;
#X connect 23 0 16 0;
#X connect 24 0 1 0;
#X connect 26 0 25 0;
#X connect 28 0 27 0;
#X connect 29 0 32 0;
#X connect 30 0 34 0;
#X connect 31 0 9 0;
#X connect 33 0 17 0;
#X connect 35 0 27 0;
#X connect 36 0 27 0;
#X restore 120 291 pd Marker;
#N canvas 197 76 774 381 Playback 0;
#X floatatom 88 68 5 0 0 0 - - -, f 5;
#X obj 88 93 / 127;
#X obj 115 172 sel 0 1;
#X msg 115 196 12;
#X msg 145 196 13;
#X obj 88 141 t f f;
#X obj 88 119 tgl 15 0 empty empty empty 17 7 0 10 -262144 -1 -1 0
1;
#X obj 88 17 ctlin 43;
#X floatatom 218 68 5 0 0 0 - - -, f 5;
#X obj 218 93 / 127;
#X obj 245 172 sel 0 1;
#X msg 245 196 12;
#X msg 275 196 13;
#X obj 218 141 t f f;
#X obj 218 119 tgl 15 0 empty empty empty 17 7 0 10 -262144 -1 -1 0
1;
#X floatatom 358 68 5 0 0 0 - - -, f 5;
#X obj 358 93 / 127;
#X obj 385 172 sel 0 1;
#X msg 385 196 12;
#X msg 415 196 13;
#X obj 358 141 t f f;
#X obj 358 119 tgl 15 0 empty empty empty 17 7 0 10 -262144 -1 -1 0
1;
#X floatatom 498 68 5 0 0 0 - - -, f 5;
#X obj 498 93 / 127;
#X obj 525 172 sel 0 1;
#X msg 525 196 12;
#X msg 555 196 13;
#X obj 498 141 t f f;
#X obj 498 119 tgl 15 0 empty empty empty 17 7 0 10 -262144 -1 -1 0
1;
#X floatatom 638 68 5 0 0 0 - - -, f 5;
#X obj 638 93 / 127;
#X obj 665 172 sel 0 1;
#X msg 665 196 12;
#X msg 695 196 13;
#X obj 638 141 t f f;
#X obj 638 119 tgl 15 0 empty empty empty 17 7 0 10 -262144 -1 -1 0
1;
#X obj 218 17 ctlin 44;
#X obj 358 17 ctlin 42;
#X obj 498 17 ctlin 41;
#X obj 638 17 ctlin 45;
#X obj 33 47 r \$0-rewind;
#X obj 88 353 outlet;
#X obj 115 253 s \$0-rewind_p;
#X msg 115 225 color \$1;
#X obj 163 47 r \$0-forward;
#X obj 245 253 s \$0-forward_p;
#X msg 245 225 color \$1;
#X obj 303 47 r \$0-stop;
#X obj 385 253 s \$0-stop_p;
#X obj 443 47 r \$0-play;
#X obj 525 253 s \$0-play_p;
#X msg 385 225 color \$1;
#X msg 525 226 color \$1;
#X obj 583 47 r \$0-record;
#X obj 665 253 s \$0-record_p;
#X msg 665 225 color \$1;
#X msg 88 286 rewind \$1;
#X msg 218 286 forward \$1;
#X msg 358 286 stop \$1;
#X msg 498 286 play \$1;
#X msg 638 286 record \$1;
#X connect 0 0 1 0;
#X connect 1 0 6 0;
#X connect 2 0 3 0;
#X connect 2 1 4 0;
#X connect 3 0 43 0;
#X connect 4 0 43 0;
#X connect 5 0 56 0;
#X connect 5 1 2 0;
#X connect 6 0 5 0;
#X connect 7 0 0 0;
#X connect 8 0 9 0;
#X connect 9 0 14 0;
#X connect 10 0 11 0;
#X connect 10 1 12 0;
#X connect 11 0 46 0;
#X connect 12 0 46 0;
#X connect 13 0 57 0;
#X connect 13 1 10 0;
#X connect 14 0 13 0;
#X connect 15 0 16 0;
#X connect 16 0 21 0;
#X connect 17 0 18 0;
#X connect 17 1 19 0;
#X connect 18 0 51 0;
#X connect 19 0 51 0;
#X connect 20 0 58 0;
#X connect 20 1 17 0;
#X connect 21 0 20 0;
#X connect 22 0 23 0;
#X connect 23 0 28 0;
#X connect 24 0 25 0;
#X connect 24 1 26 0;
#X connect 25 0 52 0;
#X connect 26 0 52 0;
#X connect 27 0 59 0;
#X connect 27 1 24 0;
#X connect 28 0 27 0;
#X connect 29 0 30 0;
#X connect 30 0 35 0;
#X connect 31 0 32 0;
#X connect 31 1 33 0;
#X connect 32 0 55 0;
#X connect 33 0 55 0;
#X connect 34 0 60 0;
#X connect 34 1 31 0;
#X connect 35 0 34 0;
#X connect 36 0 8 0;
#X connect 37 0 15 0;
#X connect 38 0 22 0;
#X connect 39 0 29 0;
#X connect 40 0 6 0;
#X connect 43 0 42 0;
#X connect 44 0 14 0;
#X connect 46 0 45 0;
#X connect 47 0 21 0;
#X connect 49 0 28 0;
#X connect 51 0 48 0;
#X connect 52 0 50 0;
#X connect 53 0 35 0;
#X connect 55 0 54 0;
#X connect 56 0 41 0;
#X connect 57 0 41 0;
#X connect 58 0 41 0;
#X connect 59 0 41 0;
#X connect 60 0 41 0;
#X restore 120 316 pd Playback;
#N canvas 41 618 669 385 nano1 0;
#X floatatom 8 28 5 0 0 0 - - -, f 5;
#X obj 8 53 / 127;
#X obj 8 315 outlet;
#X floatatom 528 28 5 0 0 0 - - -, f 5;
#X floatatom 138 28 5 0 0 0 - - -, f 5;
#X obj 138 53 / 127;
#X obj 165 132 sel 0 1;
#X msg 165 156 12;
#X msg 195 156 13;
#X obj 138 101 t f f;
#X obj 138 -23 ctlin 32;
#X obj 138 79 tgl 15 0 empty empty empty 17 7 0 10 -262144 -1 -1 0
1;
#X floatatom 268 28 5 0 0 0 - - -, f 5;
#X obj 268 53 / 127;
#X obj 295 132 sel 0 1;
#X msg 295 156 12;
#X msg 325 156 13;
#X obj 268 101 t f f;
#X obj 268 79 tgl 15 0 empty empty empty 17 7 0 10 -262144 -1 -262144
0 1;
#X floatatom 398 28 5 0 0 0 - - -, f 5;
#X obj 398 53 / 127;
#X obj 425 132 sel 0 1;
#X msg 425 156 12;
#X msg 455 156 13;
#X obj 398 101 t f f;
#X obj 398 79 tgl 15 0 empty empty empty 17 7 0 10 -262144 -1 -1 0
1;
#X obj 8 -23 ctlin 0;
#X obj 528 -23 ctlin 16;
#X obj 268 -23 ctlin 48;
#X obj 398 -23 ctlin 64;
#X floatatom 8 77 5 0 0 0 - - -, f 5;
#X floatatom 528 78 5 0 0 0 - - -, f 5;
#X floatatom 8 160 5 0 0 0 - - -, f 5;
#X floatatom 528 160 5 0 0 0 - - -, f 5;
#X msg 165 185 color \$1;
#X msg 295 185 color \$1;
#X msg 425 185 color \$1;
#X obj 8 129 r \$0-nano1;
#X msg 8 233 nano1 \$1;
#X msg 138 233 nano1S \$1;
#X msg 268 233 nano1M \$1;
#X obj 213 7 r \$0-nano1M;
#X obj 343 7 r \$0-nano1R;
#X msg 398 233 nano1R \$1;
#X msg 528 233 nano1K \$1;
#X obj 528 129 r \$0-nano1K;
#X obj 8 96 s nano1_p;
#X obj 83 7 r \$0-nano1S;
#X obj 165 208 s nano1S_p;
#X obj 295 208 s nano1M_p;
#X obj 425 208 s nano1R_p;
#X obj 528 101 s nano1K_p;
#X obj 528 53 / 127;
#X connect 0 0 1 0;
#X connect 1 0 30 0;
#X connect 3 0 52 0;
#X connect 4 0 5 0;
#X connect 5 0 11 0;
#X connect 6 0 7 0;
#X connect 6 1 8 0;
#X connect 7 0 34 0;
#X connect 8 0 34 0;
#X connect 9 0 39 0;
#X connect 9 1 6 0;
#X connect 10 0 4 0;
#X connect 11 0 9 0;
#X connect 12 0 13 0;
#X connect 13 0 18 0;
#X connect 14 0 15 0;
#X connect 14 1 16 0;
#X connect 15 0 35 0;
#X connect 16 0 35 0;
#X connect 17 0 40 0;
#X connect 17 1 14 0;
#X connect 18 0 17 0;
#X connect 19 0 20 0;
#X connect 20 0 25 0;
#X connect 21 0 22 0;
#X connect 21 1 23 0;
#X connect 22 0 36 0;
#X connect 23 0 36 0;
#X connect 24 0 43 0;
#X connect 24 1 21 0;
#X connect 25 0 24 0;
#X connect 26 0 0 0;
#X connect 27 0 3 0;
#X connect 28 0 12 0;
#X connect 29 0 19 0;
#X connect 30 0 46 0;
#X connect 31 0 51 0;
#X connect 32 0 38 0;
#X connect 33 0 44 0;
#X connect 34 0 48 0;
#X connect 35 0 49 0;
#X connect 36 0 50 0;
#X connect 37 0 32 0;
#X connect 38 0 2 0;
#X connect 39 0 2 0;
#X connect 40 0 2 0;
#X connect 41 0 18 0;
#X connect 42 0 25 0;
#X connect 43 0 2 0;
#X connect 44 0 2 0;
#X connect 45 0 33 0;
#X connect 47 0 11 0;
#X connect 52 0 31 0;
#X restore 120 221 pd nano1;
#N canvas 177 201 649 403 nano2 0;
#X floatatom 38 38 5 0 0 0 - - -, f 5;
#X obj 38 63 / 127;
#X obj 38 353 outlet;
#X floatatom 558 38 5 0 0 0 - - -, f 5;
#X floatatom 168 38 5 0 0 0 - - -, f 5;
#X obj 168 63 / 127;
#X obj 195 142 sel 0 1;
#X msg 195 166 12;
#X msg 225 166 13;
#X obj 168 111 t f f;
#X obj 168 89 tgl 15 0 empty empty empty 17 7 0 10 -262144 -1 -1 0
1;
#X floatatom 298 38 5 0 0 0 - - -, f 5;
#X obj 298 63 / 127;
#X obj 325 142 sel 0 1;
#X msg 325 166 12;
#X msg 355 166 13;
#X obj 298 111 t f f;
#X obj 298 89 tgl 15 0 empty empty empty 17 7 0 10 -262144 -1 -1 0
1;
#X floatatom 428 38 5 0 0 0 - - -, f 5;
#X obj 428 63 / 127;
#X obj 455 142 sel 0 1;
#X msg 455 166 12;
#X msg 485 166 13;
#X obj 428 111 t f f;
#X obj 428 89 tgl 15 0 empty empty empty 17 7 0 10 -262144 -1 -1 0
1;
#X floatatom 38 87 5 0 0 0 - - -, f 5;
#X floatatom 558 88 5 0 0 0 - - -, f 5;
#X floatatom 38 170 5 0 0 0 - - -, f 5;
#X floatatom 558 170 5 0 0 0 - - -, f 5;
#X obj 38 -13 ctlin 1;
#X obj 558 -13 ctlin 17;
#X obj 168 -13 ctlin 33;
#X obj 298 -13 ctlin 49;
#X obj 428 -13 ctlin 65;
#X obj 38 139 r \$0-nano2;
#X msg 195 195 color \$1;
#X msg 325 195 color \$1;
#X msg 455 195 color \$1;
#X obj 113 17 r \$0-nano2S;
#X msg 168 263 nano2S \$1;
#X obj 243 17 r \$0-nano2M;
#X msg 298 263 nano2M \$1;
#X obj 373 17 r \$0-nano2R;
#X msg 428 263 nano2R \$1;
#X obj 558 139 r \$0-nano2K;
#X msg 558 263 nano2K \$1;
#X msg 38 263 nano2 \$1;
#X obj 38 107 s nano2_p;
#X obj 195 218 s nano2S_p;
#X obj 325 218 s nano2M_p;
#X obj 455 218 s nano2R_p;
#X obj 558 111 s nano2K_p;
#X obj 558 63 / 127;
#X connect 0 0 1 0;
#X connect 1 0 25 0;
#X connect 3 0 52 0;
#X connect 4 0 5 0;
#X connect 5 0 10 0;
#X connect 6 0 7 0;
#X connect 6 1 8 0;
#X connect 7 0 35 0;
#X connect 8 0 35 0;
#X connect 9 0 39 0;
#X connect 9 1 6 0;
#X connect 10 0 9 0;
#X connect 11 0 12 0;
#X connect 12 0 17 0;
#X connect 13 0 14 0;
#X connect 13 1 15 0;
#X connect 14 0 36 0;
#X connect 15 0 36 0;
#X connect 16 0 41 0;
#X connect 16 1 13 0;
#X connect 17 0 16 0;
#X connect 18 0 19 0;
#X connect 19 0 24 0;
#X connect 20 0 21 0;
#X connect 20 1 22 0;
#X connect 21 0 37 0;
#X connect 22 0 37 0;
#X connect 23 0 43 0;
#X connect 23 1 20 0;
#X connect 24 0 23 0;
#X connect 25 0 47 0;
#X connect 26 0 51 0;
#X connect 27 0 46 0;
#X connect 28 0 45 0;
#X connect 29 0 0 0;
#X connect 30 0 3 0;
#X connect 31 0 4 0;
#X connect 32 0 11 0;
#X connect 33 0 18 0;
#X connect 34 0 27 0;
#X connect 35 0 48 0;
#X connect 36 0 49 0;
#X connect 37 0 50 0;
#X connect 38 0 10 0;
#X connect 39 0 2 0;
#X connect 40 0 17 0;
#X connect 41 0 2 0;
#X connect 42 0 24 0;
#X connect 43 0 2 0;
#X connect 44 0 28 0;
#X connect 45 0 2 0;
#X connect 46 0 2 0;
#X connect 52 0 26 0;
#X restore 180 221 pd nano2;
#X obj 248 336 spigot;
#X obj 193 130 tgl 15 0 \$0-nanokontrol2? nanokontrol2? SEND -27 7
0 10 -228856 -4160 -1 1 1;
#N canvas 0 298 682 376 nano3 0;
#X floatatom 18 48 5 0 0 0 - - -, f 5;
#X obj 18 73 / 127;
#X obj 18 323 outlet;
#X floatatom 578 48 5 0 0 0 - - -, f 5;
#X floatatom 158 48 5 0 0 0 - - -, f 5;
#X obj 158 73 / 127;
#X obj 185 152 sel 0 1;
#X msg 185 176 12;
#X msg 215 176 13;
#X obj 158 121 t f f;
#X obj 158 99 tgl 15 0 empty empty empty 17 7 0 10 -262144 -1 -1 0
1;
#X floatatom 288 48 5 0 0 0 - - -, f 5;
#X obj 288 73 / 127;
#X obj 315 152 sel 0 1;
#X msg 315 176 12;
#X msg 345 176 13;
#X obj 288 121 t f f;
#X obj 288 99 tgl 15 0 empty empty empty 17 7 0 10 -262144 -1 -1 0
1;
#X floatatom 438 48 5 0 0 0 - - -, f 5;
#X obj 438 73 / 127;
#X obj 465 152 sel 0 1;
#X msg 465 176 12;
#X msg 495 176 13;
#X obj 438 121 t f f;
#X obj 438 99 tgl 15 0 empty empty empty 17 7 0 10 -262144 -1 -1 0
1;
#X floatatom 18 97 5 0 0 0 - - -, f 5;
#X floatatom 578 98 5 0 0 0 - - -, f 5;
#X floatatom 18 180 5 0 0 0 - - -, f 5;
#X floatatom 578 180 5 0 0 0 - - -, f 5;
#X obj 18 -3 ctlin 2;
#X obj 578 -3 ctlin 18;
#X obj 158 -3 ctlin 34;
#X obj 288 -3 ctlin 50;
#X obj 438 -3 ctlin 66;
#X obj 18 149 r \$0-nano3;
#X obj 103 27 r \$0-nano3S;
#X msg 185 205 color \$1;
#X msg 315 205 color \$1;
#X obj 233 27 r \$0-nano3M;
#X obj 383 27 r \$0-nano3R;
#X msg 465 205 color \$1;
#X obj 578 149 r \$0-nano3K;
#X msg 18 253 nano3 \$1;
#X msg 158 253 nano3S \$1;
#X msg 288 253 nano3M \$1;
#X msg 438 253 nano3R \$1;
#X msg 578 253 nano3K \$1;
#X obj 18 117 s nano3_p;
#X obj 185 226 s nano3S_p;
#X obj 315 226 s nano3M_p;
#X obj 465 226 s nano3R_p;
#X obj 578 121 s nano3K_p;
#X obj 578 73 / 127;
#X connect 0 0 1 0;
#X connect 1 0 25 0;
#X connect 3 0 52 0;
#X connect 4 0 5 0;
#X connect 5 0 10 0;
#X connect 6 0 7 0;
#X connect 6 1 8 0;
#X connect 7 0 36 0;
#X connect 8 0 36 0;
#X connect 9 0 43 0;
#X connect 9 1 6 0;
#X connect 10 0 9 0;
#X connect 11 0 12 0;
#X connect 12 0 17 0;
#X connect 13 0 14 0;
#X connect 13 1 15 0;
#X connect 14 0 37 0;
#X connect 15 0 37 0;
#X connect 16 0 44 0;
#X connect 16 1 13 0;
#X connect 17 0 16 0;
#X connect 18 0 19 0;
#X connect 19 0 24 0;
#X connect 20 0 21 0;
#X connect 20 1 22 0;
#X connect 21 0 40 0;
#X connect 22 0 40 0;
#X connect 23 0 45 0;
#X connect 23 1 20 0;
#X connect 24 0 23 0;
#X connect 25 0 47 0;
#X connect 26 0 51 0;
#X connect 27 0 42 0;
#X connect 28 0 46 0;
#X connect 29 0 0 0;
#X connect 30 0 3 0;
#X connect 31 0 4 0;
#X connect 32 0 11 0;
#X connect 33 0 18 0;
#X connect 34 0 27 0;
#X connect 35 0 10 0;
#X connect 36 0 48 0;
#X connect 37 0 49 0;
#X connect 38 0 17 0;
#X connect 39 0 24 0;
#X connect 40 0 50 0;
#X connect 41 0 28 0;
#X connect 42 0 2 0;
#X connect 43 0 2 0;
#X connect 44 0 2 0;
#X connect 45 0 2 0;
#X connect 46 0 2 0;
#X connect 52 0 26 0;
#X restore 240 221 pd nano3;
#N canvas 117 175 721 391 nano4 0;
#X floatatom 48 58 5 0 0 0 - - -, f 5;
#X obj 48 83 / 127;
#X obj 48 343 outlet;
#X floatatom 608 58 5 0 0 0 - - -, f 5;
#X floatatom 188 58 5 0 0 0 - - -, f 5;
#X obj 188 83 / 127;
#X obj 215 162 sel 0 1;
#X msg 215 186 12;
#X msg 245 186 13;
#X obj 188 131 t f f;
#X obj 188 109 tgl 15 0 empty empty empty 17 7 0 10 -262144 -1 -1 0
1;
#X floatatom 318 58 5 0 0 0 - - -, f 5;
#X obj 318 83 / 127;
#X obj 345 162 sel 0 1;
#X msg 345 186 12;
#X msg 375 186 13;
#X obj 318 131 t f f;
#X obj 318 109 tgl 15 0 empty empty empty 17 7 0 10 -262144 -1 -1 0
1;
#X floatatom 468 58 5 0 0 0 - - -, f 5;
#X obj 468 83 / 127;
#X obj 495 162 sel 0 1;
#X msg 495 186 12;
#X msg 525 186 13;
#X obj 468 131 t f f;
#X obj 468 109 tgl 15 0 empty empty empty 17 7 0 10 -262144 -1 -1 0
1;
#X floatatom 48 107 5 0 0 0 - - -, f 5;
#X floatatom 608 108 5 0 0 0 - - -, f 5;
#X floatatom 48 190 5 0 0 0 - - -, f 5;
#X floatatom 608 190 5 0 0 0 - - -, f 5;
#X obj 48 7 ctlin 3;
#X obj 608 7 ctlin 19;
#X obj 188 7 ctlin 35;
#X obj 318 7 ctlin 51;
#X obj 468 7 ctlin 67;
#X obj 608 159 r \$0-nano4K;
#X obj 413 37 r \$0-nano4R;
#X msg 495 215 color \$1;
#X obj 263 37 r \$0-nano4M;
#X msg 345 215 color \$1;
#X obj 133 37 r \$0-nano4S;
#X msg 215 215 color \$1;
#X obj 48 159 r \$0-nano4;
#X msg 48 273 nano4 \$1;
#X msg 188 273 nano4S \$1;
#X msg 318 273 nano4M \$1;
#X msg 468 273 nano4R \$1;
#X msg 608 273 nano4K \$1;
#X obj 48 127 s nano4_p;
#X obj 215 237 s nano4S_p;
#X obj 345 237 s nano4M_p;
#X obj 495 237 s nano4R_p;
#X obj 608 131 s nano4K_p;
#X obj 608 83 / 127;
#X connect 0 0 1 0;
#X connect 1 0 25 0;
#X connect 3 0 52 0;
#X connect 4 0 5 0;
#X connect 5 0 10 0;
#X connect 6 0 7 0;
#X connect 6 1 8 0;
#X connect 7 0 40 0;
#X connect 8 0 40 0;
#X connect 9 0 43 0;
#X connect 9 1 6 0;
#X connect 10 0 9 0;
#X connect 11 0 12 0;
#X connect 12 0 17 0;
#X connect 13 0 14 0;
#X connect 13 1 15 0;
#X connect 14 0 38 0;
#X connect 15 0 38 0;
#X connect 16 0 44 0;
#X connect 16 1 13 0;
#X connect 17 0 16 0;
#X connect 18 0 19 0;
#X connect 19 0 24 0;
#X connect 20 0 21 0;
#X connect 20 1 22 0;
#X connect 21 0 36 0;
#X connect 22 0 36 0;
#X connect 23 0 45 0;
#X connect 23 1 20 0;
#X connect 24 0 23 0;
#X connect 25 0 47 0;
#X connect 26 0 51 0;
#X connect 27 0 42 0;
#X connect 28 0 46 0;
#X connect 29 0 0 0;
#X connect 30 0 3 0;
#X connect 31 0 4 0;
#X connect 32 0 11 0;
#X connect 33 0 18 0;
#X connect 34 0 28 0;
#X connect 35 0 24 0;
#X connect 36 0 50 0;
#X connect 37 0 17 0;
#X connect 38 0 49 0;
#X connect 39 0 10 0;
#X connect 40 0 48 0;
#X connect 41 0 27 0;
#X connect 42 0 2 0;
#X connect 43 0 2 0;
#X connect 44 0 2 0;
#X connect 45 0 2 0;
#X connect 46 0 2 0;
#X connect 52 0 26 0;
#X restore 300 221 pd nano4;
#N canvas 154 139 698 396 nano5 0;
#X floatatom 28 68 5 0 0 0 - - -, f 5;
#X obj 28 93 / 127;
#X obj 28 373 outlet;
#X floatatom 588 68 5 0 0 0 - - -, f 5;
#X floatatom 168 68 5 0 0 0 - - -, f 5;
#X obj 168 93 / 127;
#X obj 195 172 sel 0 1;
#X msg 195 196 12;
#X msg 225 196 13;
#X obj 168 141 t f f;
#X obj 168 119 tgl 15 0 empty empty empty 17 7 0 10 -262144 -1 -1 0
1;
#X floatatom 298 68 5 0 0 0 - - -, f 5;
#X obj 298 93 / 127;
#X obj 325 172 sel 0 1;
#X msg 325 196 12;
#X msg 355 196 13;
#X obj 298 141 t f f;
#X obj 298 119 tgl 15 0 empty empty empty 17 7 0 10 -262144 -1 -1 0
1;
#X floatatom 448 68 5 0 0 0 - - -, f 5;
#X obj 448 93 / 127;
#X obj 475 172 sel 0 1;
#X msg 475 196 12;
#X msg 505 196 13;
#X obj 448 141 t f f;
#X obj 448 119 tgl 15 0 empty empty empty 17 7 0 10 -262144 -1 -1 0
1;
#X floatatom 28 117 5 0 0 0 - - -, f 5;
#X floatatom 588 118 5 0 0 0 - - -, f 5;
#X floatatom 28 200 5 0 0 0 - - -, f 5;
#X floatatom 588 200 5 0 0 0 - - -, f 5;
#X obj 28 17 ctlin 4;
#X obj 588 17 ctlin 20;
#X obj 168 17 ctlin 36;
#X obj 298 17 ctlin 52;
#X obj 448 17 ctlin 68;
#X obj 113 47 r \$0-nano5S;
#X msg 195 225 color \$1;
#X obj 243 47 r \$0-nano5M;
#X msg 325 225 color \$1;
#X obj 393 47 r \$0-nano5R;
#X msg 475 225 color \$1;
#X obj 28 169 r \$0-nano5;
#X msg 28 283 nano5 \$1;
#X msg 168 283 nano5S \$1;
#X msg 298 283 nano5M \$1;
#X msg 448 283 nano5R \$1;
#X msg 588 283 nano5K \$1;
#X obj 588 169 r \$0-nano5K;
#X obj 28 137 s nano5_p;
#X obj 195 249 s nano5S_p;
#X obj 325 249 s nano5M_p;
#X obj 475 249 s nano5R_p;
#X obj 588 141 s nano5K_p;
#X obj 588 93 / 127;
#X connect 0 0 1 0;
#X connect 1 0 25 0;
#X connect 3 0 52 0;
#X connect 4 0 5 0;
#X connect 5 0 10 0;
#X connect 6 0 7 0;
#X connect 6 1 8 0;
#X connect 7 0 35 0;
#X connect 8 0 35 0;
#X connect 9 0 42 0;
#X connect 9 1 6 0;
#X connect 10 0 9 0;
#X connect 11 0 12 0;
#X connect 12 0 17 0;
#X connect 13 0 14 0;
#X connect 13 1 15 0;
#X connect 14 0 37 0;
#X connect 15 0 37 0;
#X connect 16 0 43 0;
#X connect 16 1 13 0;
#X connect 17 0 16 0;
#X connect 18 0 19 0;
#X connect 19 0 24 0;
#X connect 20 0 21 0;
#X connect 20 1 22 0;
#X connect 21 0 39 0;
#X connect 22 0 39 0;
#X connect 23 0 44 0;
#X connect 23 1 20 0;
#X connect 24 0 23 0;
#X connect 25 0 47 0;
#X connect 26 0 51 0;
#X connect 27 0 41 0;
#X connect 28 0 45 0;
#X connect 29 0 0 0;
#X connect 30 0 3 0;
#X connect 31 0 4 0;
#X connect 32 0 11 0;
#X connect 33 0 18 0;
#X connect 34 0 10 0;
#X connect 35 0 48 0;
#X connect 36 0 17 0;
#X connect 37 0 49 0;
#X connect 38 0 24 0;
#X connect 39 0 50 0;
#X connect 40 0 27 0;
#X connect 41 0 2 0;
#X connect 42 0 2 0;
#X connect 43 0 2 0;
#X connect 44 0 2 0;
#X connect 45 0 2 0;
#X connect 46 0 28 0;
#X connect 52 0 26 0;
#X restore 120 241 pd nano5;
#N canvas 113 189 720 404 nano6 0;
#X floatatom 48 58 5 0 0 0 - - -, f 5;
#X obj 48 83 / 127;
#X obj 48 353 outlet;
#X floatatom 608 58 5 0 0 0 - - -, f 5;
#X floatatom 188 58 5 0 0 0 - - -, f 5;
#X obj 188 83 / 127;
#X obj 215 162 sel 0 1;
#X msg 215 186 12;
#X msg 245 186 13;
#X obj 188 131 t f f;
#X obj 188 109 tgl 15 0 empty empty empty 17 7 0 10 -262144 -1 -1 0
1;
#X floatatom 318 58 5 0 0 0 - - -, f 5;
#X obj 318 83 / 127;
#X obj 345 162 sel 0 1;
#X msg 345 186 12;
#X msg 375 186 13;
#X obj 318 131 t f f;
#X obj 318 109 tgl 15 0 empty empty empty 17 7 0 10 -262144 -1 -1 0
1;
#X floatatom 468 58 5 0 0 0 - - -, f 5;
#X obj 468 83 / 127;
#X obj 495 162 sel 0 1;
#X msg 495 186 12;
#X msg 525 186 13;
#X obj 468 131 t f f;
#X obj 468 109 tgl 15 0 empty empty empty 17 7 0 10 -262144 -1 -1 0
1;
#X floatatom 48 107 5 0 0 0 - - -, f 5;
#X floatatom 608 108 5 0 0 0 - - -, f 5;
#X floatatom 48 190 5 0 0 0 - - -, f 5;
#X floatatom 608 190 5 0 0 0 - - -, f 5;
#X obj 48 7 ctlin 5;
#X obj 608 7 ctlin 21;
#X obj 188 7 ctlin 37;
#X obj 318 7 ctlin 53;
#X obj 468 7 ctlin 69;
#X obj 133 37 r \$0-nano6S;
#X msg 215 215 color \$1;
#X obj 263 37 r \$0-nano6M;
#X msg 345 215 color \$1;
#X obj 413 37 r \$0-nano6R;
#X msg 495 215 color \$1;
#X obj 608 159 r \$0-nano6K;
#X obj 48 159 r \$0-nano6;
#X msg 48 273 nano6 \$1;
#X msg 188 273 nano6S \$1;
#X msg 318 273 nano6M \$1;
#X msg 468 273 nano6R \$1;
#X msg 608 273 nano6K \$1;
#X obj 48 127 s nano6_p;
#X obj 215 237 s nano6S_p;
#X obj 345 237 s nano6M_p;
#X obj 495 237 s nano6R_p;
#X obj 608 131 s nano6K_p;
#X obj 608 83 / 127;
#X connect 0 0 1 0;
#X connect 1 0 25 0;
#X connect 3 0 52 0;
#X connect 4 0 5 0;
#X connect 5 0 10 0;
#X connect 6 0 7 0;
#X connect 6 1 8 0;
#X connect 7 0 35 0;
#X connect 8 0 35 0;
#X connect 9 0 43 0;
#X connect 9 1 6 0;
#X connect 10 0 9 0;
#X connect 11 0 12 0;
#X connect 12 0 17 0;
#X connect 13 0 14 0;
#X connect 13 1 15 0;
#X connect 14 0 37 0;
#X connect 15 0 37 0;
#X connect 16 0 44 0;
#X connect 16 1 13 0;
#X connect 17 0 16 0;
#X connect 18 0 19 0;
#X connect 19 0 24 0;
#X connect 20 0 21 0;
#X connect 20 1 22 0;
#X connect 21 0 39 0;
#X connect 22 0 39 0;
#X connect 23 0 45 0;
#X connect 23 1 20 0;
#X connect 24 0 23 0;
#X connect 25 0 47 0;
#X connect 26 0 51 0;
#X connect 27 0 42 0;
#X connect 28 0 46 0;
#X connect 29 0 0 0;
#X connect 30 0 3 0;
#X connect 31 0 4 0;
#X connect 32 0 11 0;
#X connect 33 0 18 0;
#X connect 34 0 10 0;
#X connect 35 0 48 0;
#X connect 36 0 17 0;
#X connect 37 0 49 0;
#X connect 38 0 24 0;
#X connect 39 0 50 0;
#X connect 40 0 28 0;
#X connect 41 0 27 0;
#X connect 42 0 2 0;
#X connect 43 0 2 0;
#X connect 44 0 2 0;
#X connect 45 0 2 0;
#X connect 46 0 2 0;
#X connect 52 0 26 0;
#X restore 180 241 pd nano6;
#N canvas 207 200 675 400 nano7 0;
#X floatatom 18 58 5 0 0 0 - - -, f 5;
#X obj 18 83 / 127;
#X obj 18 343 outlet;
#X floatatom 578 58 5 0 0 0 - - -, f 5;
#X floatatom 158 58 5 0 0 0 - - -, f 5;
#X obj 158 83 / 127;
#X obj 185 162 sel 0 1;
#X msg 185 186 12;
#X msg 215 186 13;
#X obj 158 131 t f f;
#X obj 158 109 tgl 15 0 empty empty empty 17 7 0 10 -262144 -1 -1 0
1;
#X floatatom 288 58 5 0 0 0 - - -, f 5;
#X obj 288 83 / 127;
#X obj 315 162 sel 0 1;
#X msg 315 186 12;
#X msg 345 186 13;
#X obj 288 131 t f f;
#X obj 288 109 tgl 15 0 empty empty empty 17 7 0 10 -262144 -1 -1 0
1;
#X floatatom 438 58 5 0 0 0 - - -, f 5;
#X obj 438 83 / 127;
#X obj 465 162 sel 0 1;
#X msg 465 186 12;
#X msg 495 186 13;
#X obj 438 131 t f f;
#X obj 438 109 tgl 15 0 empty empty empty 17 7 0 10 -262144 -1 -1 0
1;
#X floatatom 18 107 5 0 0 0 - - -, f 5;
#X floatatom 578 108 5 0 0 0 - - -, f 5;
#X floatatom 18 190 5 0 0 0 - - -, f 5;
#X floatatom 578 190 5 0 0 0 - - -, f 5;
#X obj 18 7 ctlin 6;
#X obj 578 7 ctlin 22;
#X obj 158 7 ctlin 38;
#X obj 288 7 ctlin 54;
#X obj 438 7 ctlin 70;
#X obj 103 37 r \$0-nano7S;
#X msg 185 215 color \$1;
#X obj 233 37 r \$0-nano7M;
#X msg 315 215 color \$1;
#X obj 383 37 r \$0-nano7R;
#X msg 465 215 color \$1;
#X obj 578 159 r \$0-nano7K;
#X obj 18 159 r \$0-nano7;
#X msg 18 273 nano7 \$1;
#X msg 158 273 nano7S \$1;
#X msg 288 273 nano7M \$1;
#X msg 438 273 nano7R \$1;
#X msg 578 273 nano7K \$1;
#X obj 18 127 s nano7_p;
#X obj 185 243 s nano7S_p;
#X obj 315 243 s nano7M_p;
#X obj 465 243 s nano7R_p;
#X obj 578 131 s nano7K_p;
#X obj 578 83 / 127;
#X connect 0 0 1 0;
#X connect 1 0 25 0;
#X connect 3 0 52 0;
#X connect 4 0 5 0;
#X connect 5 0 10 0;
#X connect 6 0 7 0;
#X connect 6 1 8 0;
#X connect 7 0 35 0;
#X connect 8 0 35 0;
#X connect 9 0 43 0;
#X connect 9 1 6 0;
#X connect 10 0 9 0;
#X connect 11 0 12 0;
#X connect 12 0 17 0;
#X connect 13 0 14 0;
#X connect 13 1 15 0;
#X connect 14 0 37 0;
#X connect 15 0 37 0;
#X connect 16 0 44 0;
#X connect 16 1 13 0;
#X connect 17 0 16 0;
#X connect 18 0 19 0;
#X connect 19 0 24 0;
#X connect 20 0 21 0;
#X connect 20 1 22 0;
#X connect 21 0 39 0;
#X connect 22 0 39 0;
#X connect 23 0 45 0;
#X connect 23 1 20 0;
#X connect 24 0 23 0;
#X connect 25 0 47 0;
#X connect 26 0 51 0;
#X connect 27 0 42 0;
#X connect 28 0 46 0;
#X connect 29 0 0 0;
#X connect 30 0 3 0;
#X connect 31 0 4 0;
#X connect 32 0 11 0;
#X connect 33 0 18 0;
#X connect 34 0 10 0;
#X connect 35 0 48 0;
#X connect 36 0 17 0;
#X connect 37 0 49 0;
#X connect 38 0 24 0;
#X connect 39 0 50 0;
#X connect 40 0 28 0;
#X connect 41 0 27 0;
#X connect 42 0 2 0;
#X connect 43 0 2 0;
#X connect 44 0 2 0;
#X connect 45 0 2 0;
#X connect 46 0 2 0;
#X connect 52 0 26 0;
#X restore 240 241 pd nano7;
#N canvas 138 79 679 412 nano8 0;
#X floatatom 28 68 5 0 0 0 - - -, f 5;
#X obj 28 93 / 127;
#X obj 28 373 outlet;
#X floatatom 588 68 5 0 0 0 - - -, f 5;
#X floatatom 168 68 5 0 0 0 - - -, f 5;
#X obj 168 93 / 127;
#X obj 195 172 sel 0 1;
#X msg 195 196 12;
#X msg 225 196 13;
#X obj 168 141 t f f;
#X obj 168 119 tgl 15 0 empty empty empty 17 7 0 10 -262144 -1 -1 0
1;
#X floatatom 298 68 5 0 0 0 - - -, f 5;
#X obj 298 93 / 127;
#X obj 325 172 sel 0 1;
#X msg 325 196 12;
#X msg 355 196 13;
#X obj 298 141 t f f;
#X obj 298 119 tgl 15 0 empty empty empty 17 7 0 10 -262144 -1 -1 0
1;
#X floatatom 448 68 5 0 0 0 - - -, f 5;
#X obj 448 93 / 127;
#X obj 475 172 sel 0 1;
#X msg 475 196 12;
#X msg 505 196 13;
#X obj 448 141 t f f;
#X obj 448 119 tgl 15 0 empty empty empty 17 7 0 10 -262144 -1 -1 0
1;
#X floatatom 28 117 5 0 0 0 - - -, f 5;
#X floatatom 588 118 5 0 0 0 - - -, f 5;
#X floatatom 28 200 5 0 0 0 - - -, f 5;
#X floatatom 588 200 5 0 0 0 - - -, f 5;
#X obj 28 17 ctlin 7;
#X obj 588 17 ctlin 23;
#X obj 168 17 ctlin 39;
#X obj 298 17 ctlin 55;
#X obj 448 17 ctlin 71;
#X obj 28 169 r \$0-nano8;
#X obj 113 47 r \$0-nano8S;
#X msg 195 225 color \$1;
#X obj 243 47 r \$0-nano8M;
#X msg 325 225 color \$1;
#X obj 393 47 r \$0-nano8R;
#X msg 475 225 color \$1;
#X obj 588 169 r \$0-nano8K;
#X msg 28 283 nano8 \$1;
#X msg 168 283 nano8S \$1;
#X msg 298 283 nano8M \$1;
#X msg 448 283 nano8R \$1;
#X msg 588 283 nano8K \$1;
#X obj 28 137 s nano8_p;
#X obj 195 257 s nano8S_p;
#X obj 325 257 s nano8M_p;
#X obj 475 257 s nano8R_p;
#X obj 588 141 s nano8K_p;
#X obj 588 93 / 127;
#X connect 0 0 1 0;
#X connect 1 0 25 0;
#X connect 3 0 52 0;
#X connect 4 0 5 0;
#X connect 5 0 10 0;
#X connect 6 0 7 0;
#X connect 6 1 8 0;
#X connect 7 0 36 0;
#X connect 8 0 36 0;
#X connect 9 0 43 0;
#X connect 9 1 6 0;
#X connect 10 0 9 0;
#X connect 11 0 12 0;
#X connect 12 0 17 0;
#X connect 13 0 14 0;
#X connect 13 1 15 0;
#X connect 14 0 38 0;
#X connect 15 0 38 0;
#X connect 16 0 44 0;
#X connect 16 1 13 0;
#X connect 17 0 16 0;
#X connect 18 0 19 0;
#X connect 19 0 24 0;
#X connect 20 0 21 0;
#X connect 20 1 22 0;
#X connect 21 0 40 0;
#X connect 22 0 40 0;
#X connect 23 0 45 0;
#X connect 23 1 20 0;
#X connect 24 0 23 0;
#X connect 25 0 47 0;
#X connect 26 0 51 0;
#X connect 27 0 42 0;
#X connect 28 0 46 0;
#X connect 29 0 0 0;
#X connect 30 0 3 0;
#X connect 31 0 4 0;
#X connect 32 0 11 0;
#X connect 33 0 18 0;
#X connect 34 0 27 0;
#X connect 35 0 10 0;
#X connect 36 0 48 0;
#X connect 37 0 17 0;
#X connect 38 0 49 0;
#X connect 39 0 24 0;
#X connect 40 0 50 0;
#X connect 41 0 28 0;
#X connect 42 0 2 0;
#X connect 43 0 2 0;
#X connect 44 0 2 0;
#X connect 45 0 2 0;
#X connect 46 0 2 0;
#X connect 52 0 26 0;
#X restore 300 241 pd nano8;
#N canvas 189 55 493 708 README 0;
#X obj 201 324 r nanokontrol;
#X obj 201 348 route nano1 nano1S nano1M nano1R nano1K;
#X obj 201 375 route nano2 nano2S nano2M nano2R nano2K;
#X obj 201 402 route nano3 nano3S nano3M nano3R nano3K;
#X obj 201 429 route nano4 nano4S nano4M nano4R nano4K;
#X obj 201 456 route nano5 nano5S nano5M nano5R nano5K;
#X obj 201 483 route nano6 nano6S nano6M nano6R nano6K;
#X obj 201 510 route nano7 nano7S nano7M nano7R nano7K;
#X obj 201 537 route nano8 nano8S nano8M nano8R nano8K;
#X obj 201 570 route trackback trackforward cycle;
#X obj 201 600 route markerset markerback markerforward;
#X obj 201 630 route rewind forward stop play record;
#X text 45 207 nano1 - nano8 (each of the sliders) [0 <> 1];
#X text 45 227 nano#S (each of the different S buttons) [0 / 1];
#X text 45 247 nano#M (each of the different M buttons) [0 / 1];
#X text 45 267 nano#R (each of the different R buttons) [0 / 1];
#X text 45 287 nano#K (each of the different knobs) [0 <> 100];
#X text 45 327 TRACK CONTROLS:;
#X text 45 347 trackback [0 / 1];
#X text 45 367 trackforward [0 / 1];
#X text 45 387 cycle [0 / 1];
#X text 45 427 MARKER CONTROLS:;
#X text 45 447 markerset [0 / 1];
#X text 45 467 markerback [0 / 1];
#X text 45 487 markerforward [0 / 1];
#X text 45 527 PLAYBACK CONTROLS:;
#X text 45 547 rewind [0 / 1];
#X text 45 567 forward [0 / 1];
#X text 45 587 stop [0 / 1];
#X text 45 607 play [0 / 1];
#X text 45 627 record [0 / 1];
#X text 42 -20 This is a control interface for the KORG nanoKONTROL2
\, written by Adrián Artacho (2014).;
#X text 42 100 All midi messages are routed through the a 'nanokontrol'
message as follows:;
#X text 72 163 [s nanokontrol];
#X text 76 149 |;
#X text 76 139 |;
#X text 42 20 In order to send data \, the SEND toggle needs to be
1:;
#X msg 76 47 \; nanokontrol2? 1;
#X text 154 707 adrian@artacho.at;
#X connect 0 0 1 0;
#X connect 1 5 2 0;
#X connect 2 5 3 0;
#X connect 3 5 4 0;
#X connect 4 5 5 0;
#X connect 5 5 6 0;
#X connect 6 5 7 0;
#X connect 7 5 8 0;
#X connect 8 5 9 0;
#X connect 9 3 10 0;
#X connect 10 3 11 0;
#X restore 106 74 pd README;
#X obj 297 281 r \$0-nanokontrol2?;
#X obj 297 321 tgl 15 0 empty empty empty 17 7 0 10 -262144 -1 -1 1
1;
#X obj 297 301 t f f;
#X obj 129 131 cnv 11 11 11 empty nano_navigation_l 10 1 5 0 7 -233017
-355 0;
#X text 232 78 Control interface for the KORG nanoKONTROL2 Artacho
2014;
#X obj 100 100 bng 13 250 50 0 \$1-gui_nr0 empty empty 17 7 0 10 -262144
-1 -1;
#X obj 100 100 cnv 13 13 13 empty empty < 0 5 0 24 -228856 -1 0;
#X obj 234 104 moonlib/mknob 25 127 0 1 0 0 \$0-nano1K nano1K_p empty
-2 -6 0 8 -66577 -166441 -262144 0 1;
#X obj 278 104 moonlib/mknob 25 127 0 1 0 0 \$0-nano2K nano2K_p empty
-2 -6 0 8 -66577 -149797 -166441 0 1;
#X obj 322 104 moonlib/mknob 25 127 0 1 0 0 \$0-nano3K nano3K_p empty
-2 -6 0 8 -66577 -166441 -262144 0 1;
#X obj 365 104 moonlib/mknob 25 127 0 1 0 0 \$0-nano4K nano4K_p empty
-2 -6 0 8 -66577 -166441 -262144 0 1;
#X obj 408 104 moonlib/mknob 25 127 0 1 0 0 \$0-nano5K nano5K_p empty
-2 -6 0 8 -66577 -166441 -262144 0 1;
#X obj 453 104 moonlib/mknob 25 127 0 1 0 0 \$0-nano6K nano6K_p empty
-2 -6 0 8 -66577 -166441 -262144 0 1;
#X obj 497 104 moonlib/mknob 25 127 0 1 0 0 \$0-nano7K nano7K_p empty
-2 -6 0 8 -66577 -166441 -262144 0 1;
#X obj 540 104 moonlib/mknob 25 127 0 1 0 0 \$0-nano8K nano8K_p empty
-2 -6 0 8 -66577 -166441 -262144 0 1;
#X msg 590 106 color 2 1 0;
#X obj 590 127 s nano8K_p;
#X obj 324 321 outlet;
#X obj 80 499 r trackback;
#X obj 80 518 tgl 15 0 empty empty empty 17 7 0 10 -262144 -1 -1 0
1;
#X obj 158 499 r trackforward;
#X obj 158 518 tgl 15 0 empty empty empty 17 7 0 10 -262144 -1 -1 0
1;
#X obj 80 537 r cycle;
#X obj 80 556 tgl 15 0 empty empty empty 17 7 0 10 -262144 -1 -1 0
1;
#X obj 130 537 r markerset;
#X obj 130 556 tgl 15 0 empty empty empty 17 7 0 10 -262144 -1 -1 0
1;
#X obj 203 537 r markerback;
#X obj 203 556 tgl 15 0 empty empty empty 17 7 0 10 -262144 -1 -1 0
1;
#X obj 283 537 r markerforward;
#X obj 283 556 tgl 15 0 empty empty empty 17 7 0 10 -262144 -1 -1 0
1;
#X obj 286 575 r record;
#X obj 286 594 tgl 15 0 empty empty empty 17 7 0 10 -262144 -1 -1 0
1;
#X obj 242 575 r play;
#X obj 242 594 tgl 15 0 empty empty empty 17 7 0 10 -262144 -1 -1 0
1;
#X obj 198 575 r stop;
#X obj 198 594 tgl 15 0 empty empty empty 17 7 0 10 -262144 -1 -1 0
1;
#X obj 137 575 r forward;
#X obj 137 594 tgl 15 0 empty empty empty 17 7 0 10 -262144 -1 -1 0
1;
#X obj 80 575 r rewind;
#X obj 80 594 tgl 15 0 empty empty empty 17 7 0 10 -262144 -1 -1 0
1;
#X obj 392 385 r nano1S;
#X obj 392 404 tgl 15 0 empty empty empty 17 7 0 10 -262144 -1 -1 0
1;
#X obj 392 422 r nano1M;
#X obj 392 441 tgl 15 0 empty empty empty 17 7 0 10 -262144 -1 -1 0
1;
#X obj 392 458 r nano1R;
#X obj 392 477 tgl 15 0 empty empty empty 17 7 0 10 -262144 -1 -1 0
1;
#X obj 449 385 r nano1K;
#X floatatom 449 405 5 0 0 0 - - -, f 5;
#X obj 448 423 r nano1;
#X floatatom 448 442 5 0 0 0 - - -, f 5;
#X obj 516 404 tgl 15 0 empty empty empty 17 7 0 10 -262144 -1 -1 0
1;
#X obj 516 441 tgl 15 0 empty empty empty 17 7 0 10 -262144 -1 -1 0
1;
#X obj 516 477 tgl 15 0 empty empty empty 17 7 0 10 -262144 -1 -1 0
1;
#X floatatom 573 405 5 0 0 0 - - -, f 5;
#X floatatom 572 442 5 0 0 0 - - -, f 5;
#X obj 637 404 tgl 15 0 empty empty empty 17 7 0 10 -262144 -1 -1 0
1;
#X obj 637 441 tgl 15 0 empty empty empty 17 7 0 10 -262144 -1 -1 0
1;
#X obj 637 477 tgl 15 0 empty empty empty 17 7 0 10 -262144 -1 -1 0
1;
#X floatatom 694 405 5 0 0 0 - - -, f 5;
#X floatatom 693 442 5 0 0 0 - - -, f 5;
#X obj 761 404 tgl 15 0 empty empty empty 17 7 0 10 -262144 -1 -1 0
1;
#X obj 761 441 tgl 15 0 empty empty empty 17 7 0 10 -262144 -1 -1 0
1;
#X obj 761 477 tgl 15 0 empty empty empty 17 7 0 10 -262144 -1 -1 0
1;
#X floatatom 818 405 5 0 0 0 - - -, f 5;
#X floatatom 817 442 5 0 0 0 - - -, f 5;
#X obj 391 518 tgl 15 0 empty empty empty 17 7 0 10 -262144 -1 -1 0
1;
#X obj 391 555 tgl 15 0 empty empty empty 17 7 0 10 -262144 -1 -1 0
1;
#X obj 391 591 tgl 15 0 empty empty empty 17 7 0 10 -262144 -1 -1 0
1;
#X floatatom 448 519 5 0 0 0 - - -, f 5;
#X floatatom 447 556 5 0 0 0 - - -, f 5;
#X obj 515 518 tgl 15 0 empty empty empty 17 7 0 10 -262144 -1 -1 0
1;
#X obj 515 555 tgl 15 0 empty empty empty 17 7 0 10 -262144 -1 -1 0
1;
#X obj 515 591 tgl 15 0 empty empty empty 17 7 0 10 -262144 -1 -1 0
1;
#X floatatom 572 519 5 0 0 0 - - -, f 5;
#X floatatom 571 556 5 0 0 0 - - -, f 5;
#X obj 636 518 tgl 15 0 empty empty empty 17 7 0 10 -262144 -1 -1 0
1;
#X obj 636 555 tgl 15 0 empty empty empty 17 7 0 10 -262144 -1 -1 0
1;
#X obj 636 591 tgl 15 0 empty empty empty 17 7 0 10 -262144 -1 -1 0
1;
#X floatatom 693 519 5 0 0 0 - - -, f 5;
#X floatatom 692 556 5 0 0 0 - - -, f 5;
#X obj 760 518 tgl 15 0 empty empty empty 17 7 0 10 -262144 -1 -1 0
1;
#X obj 760 555 tgl 15 0 empty empty empty 17 7 0 10 -262144 -1 -1 0
1;
#X obj 760 591 tgl 15 0 empty empty empty 17 7 0 10 -262144 -1 -1 0
1;
#X floatatom 817 519 5 0 0 0 - - -, f 5;
#X floatatom 816 556 5 0 0 0 - - -, f 5;
#X obj 516 385 r nano2S;
#X obj 516 422 r nano2M;
#X obj 516 458 r nano2R;
#X obj 572 423 r nano2;
#X obj 573 385 r nano2K;
#X obj 637 385 r nano3S;
#X obj 637 422 r nano3M;
#X obj 637 458 r nano3R;
#X obj 694 385 r nano3K;
#X obj 693 423 r nano3;
#X obj 761 385 r nano4S;
#X obj 761 422 r nano4M;
#X obj 761 458 r nano4R;
#X obj 817 423 r nano4;
#X obj 818 385 r nano4K;
#X obj 391 499 r nano5S;
#X obj 448 499 r nano5K;
#X obj 447 537 r nano5;
#X obj 391 536 r nano5M;
#X obj 391 572 r nano5R;
#X obj 515 499 r nano6S;
#X obj 515 536 r nano6M;
#X obj 515 572 r nano6R;
#X obj 571 537 r nano6;
#X obj 572 499 r nano6K;
#X obj 636 499 r nano7S;
#X obj 636 536 r nano7M;
#X obj 636 572 r nano7R;
#X obj 693 499 r nano7K;
#X obj 692 537 r nano7;
#X obj 760 499 r nano8S;
#X obj 760 536 r nano8M;
#X obj 760 572 r nano8R;
#X obj 817 499 r nano8K;
#X obj 816 537 r nano8;
#N canvas 160 86 450 323 routing 0;
#X obj 28 20 inlet;
#X obj 30 188 route trackback trackforward;
#X obj 30 208 s trackback;
#X obj 112 207 s trackforward;
#X obj 30 230 route cycle markerset markerback markerforward;
#X obj 30 250 s cycle;
#X obj 98 288 s markerset;
#X obj 166 269 s markerback;
#X obj 234 250 s markerforward;
#X obj 21 312 route rewind forward stop play record;
#X obj 21 370 s rewind;
#X obj 64 351 s forward;
#X obj 108 332 s stop;
#X obj 152 332 s play;
#X obj 196 332 s record;
#X obj 365 18 route nano1S nano1M nano1R nano1 nano1K;
#X obj 365 137 route nano2S nano2M nano2R nano2 nano2K;
#X obj 365 257 route nano3S nano3M nano3R nano3 nano3K;
#X obj 365 377 route nano4S nano4M nano4R nano4 nano4K;
#X obj 549 38 s nano1K;
#X obj 503 57 s nano1;
#X obj 457 76 s nano1R;
#X obj 411 95 s nano1M;
#X obj 365 114 s nano1S;
#X obj 365 233 s nano2S;
#X obj 411 214 s nano2M;
#X obj 457 195 s nano2R;
#X obj 503 176 s nano2;
#X obj 549 157 s nano2K;
#X obj 365 353 s nano3S;
#X obj 411 334 s nano3M;
#X obj 457 315 s nano3R;
#X obj 503 296 s nano3;
#X obj 549 277 s nano3K;
#X obj 365 474 s nano4S;
#X obj 411 455 s nano4M;
#X obj 457 436 s nano4R;
#X obj 503 417 s nano4;
#X obj 549 398 s nano4K;
#X obj 640 18 route nano5S nano5M nano5R nano5 nano5K;
#X obj 640 137 route nano6S nano6M nano6R nano6 nano6K;
#X obj 640 257 route nano7S nano7M nano7R nano7 nano7K;
#X obj 640 377 route nano8S nano8M nano8R nano8 nano8K;
#X obj 640 114 s nano5S;
#X obj 686 95 s nano5M;
#X obj 732 76 s nano5R;
#X obj 778 57 s nano5;
#X obj 824 38 s nano5K;
#X obj 640 233 s nano6S;
#X obj 686 214 s nano6M;
#X obj 732 195 s nano6R;
#X obj 778 176 s nano6;
#X obj 824 157 s nano6K;
#X obj 640 353 s nano7S;
#X obj 686 334 s nano7M;
#X obj 732 315 s nano7R;
#X obj 778 296 s nano7;
#X obj 824 277 s nano7K;
#X obj 640 474 s nano8S;
#X obj 686 455 s nano8M;
#X obj 732 436 s nano8R;
#X obj 778 417 s nano8;
#X obj 824 398 s nano8K;
#X connect 0 0 1 0;
#X connect 1 0 2 0;
#X connect 1 1 3 0;
#X connect 1 2 4 0;
#X connect 4 0 5 0;
#X connect 4 1 6 0;
#X connect 4 2 7 0;
#X connect 4 3 8 0;
#X connect 4 4 9 0;
#X connect 9 0 10 0;
#X connect 9 1 11 0;
#X connect 9 2 12 0;
#X connect 9 3 13 0;
#X connect 9 4 14 0;
#X connect 9 5 15 0;
#X connect 15 0 23 0;
#X connect 15 1 22 0;
#X connect 15 2 21 0;
#X connect 15 3 20 0;
#X connect 15 4 19 0;
#X connect 15 5 16 0;
#X connect 16 0 24 0;
#X connect 16 1 25 0;
#X connect 16 2 26 0;
#X connect 16 3 27 0;
#X connect 16 4 28 0;
#X connect 16 5 17 0;
#X connect 17 0 29 0;
#X connect 17 1 30 0;
#X connect 17 2 31 0;
#X connect 17 3 32 0;
#X connect 17 4 33 0;
#X connect 17 5 18 0;
#X connect 18 0 34 0;
#X connect 18 1 35 0;
#X connect 18 2 36 0;
#X connect 18 3 37 0;
#X connect 18 4 38 0;
#X connect 18 5 39 0;
#X connect 39 0 43 0;
#X connect 39 1 44 0;
#X connect 39 2 45 0;
#X connect 39 3 46 0;
#X connect 39 4 47 0;
#X connect 39 5 40 0;
#X connect 40 0 48 0;
#X connect 40 1 49 0;
#X connect 40 2 50 0;
#X connect 40 3 51 0;
#X connect 40 4 52 0;
#X connect 40 5 41 0;
#X connect 41 0 53 0;
#X connect 41 1 54 0;
#X connect 41 2 55 0;
#X connect 41 3 56 0;
#X connect 41 4 57 0;
#X connect 41 5 42 0;
#X connect 42 0 58 0;
#X connect 42 1 59 0;
#X connect 42 2 60 0;
#X connect 42 3 61 0;
#X connect 42 4 62 0;
#X restore 248 356 pd routing;
#X msg 663 324 1;
#X obj 663 344 s nanokontrol2?;
#X obj 663 305 loadbang;
#X connect 56 0 61 0;
#X connect 57 0 61 0;
#X connect 58 0 61 0;
#X connect 59 0 61 0;
#X connect 60 0 61 0;
#X connect 61 0 190 0;
#X connect 63 0 61 0;
#X connect 64 0 61 0;
#X connect 65 0 61 0;
#X connect 66 0 61 0;
#X connect 67 0 61 0;
#X connect 68 0 61 0;
#X connect 70 0 72 0;
#X connect 71 0 61 1;
#X connect 72 0 71 0;
#X connect 72 1 87 0;
#X connect 85 0 86 0;
#X connect 88 0 89 0;
#X connect 90 0 91 0;
#X connect 92 0 93 0;
#X connect 94 0 95 0;
#X connect 96 0 97 0;
#X connect 98 0 99 0;
#X connect 100 0 101 0;
#X connect 102 0 103 0;
#X connect 104 0 105 0;
#X connect 106 0 107 0;
#X connect 108 0 109 0;
#X connect 110 0 111 0;
#X connect 112 0 113 0;
#X connect 114 0 115 0;
#X connect 116 0 117 0;
#X connect 118 0 119 0;
#X connect 155 0 120 0;
#X connect 156 0 121 0;
#X connect 157 0 122 0;
#X connect 158 0 124 0;
#X connect 159 0 123 0;
#X connect 160 0 125 0;
#X connect 161 0 126 0;
#X connect 162 0 127 0;
#X connect 163 0 128 0;
#X connect 164 0 129 0;
#X connect 165 0 130 0;
#X connect 166 0 131 0;
#X connect 167 0 132 0;
#X connect 168 0 134 0;
#X connect 169 0 133 0;
#X connect 170 0 135 0;
#X connect 171 0 138 0;
#X connect 172 0 139 0;
#X connect 173 0 136 0;
#X connect 174 0 137 0;
#X connect 175 0 140 0;
#X connect 176 0 141 0;
#X connect 177 0 142 0;
#X connect 178 0 144 0;
#X connect 179 0 143 0;
#X connect 180 0 145 0;
#X connect 181 0 146 0;
#X connect 182 0 147 0;
#X connect 183 0 148 0;
#X connect 184 0 149 0;
#X connect 185 0 150 0;
#X connect 186 0 151 0;
#X connect 187 0 152 0;
#X connect 188 0 153 0;
#X connect 189 0 154 0;
#X connect 191 0 192 0;
#X connect 193 0 191 0;
#X coords 0 -1 1 1 470 102 2 100 100;
